<?xml version="1.0" encoding="UTF-8" standalone="no"?>
<!-- Created with Inkscape (http://www.inkscape.org/) -->

<svg
   width="53.426983mm"
   height="51.990128mm"
   viewBox="0 0 53.426982 51.990127"
   version="1.1"
   id="svg1"
   inkscape:version="1.4 (86a8ad7, 2024-10-11)"
   sodipodi:docname="sponge.svg"
   xmlns:inkscape="http://www.inkscape.org/namespaces/inkscape"
   xmlns:sodipodi="http://sodipodi.sourceforge.net/DTD/sodipodi-0.dtd"
   xmlns="http://www.w3.org/2000/svg"
   xmlns:svg="http://www.w3.org/2000/svg">
  <sodipodi:namedview
     id="namedview1"
     pagecolor="#ffffff"
     bordercolor="#000000"
     borderopacity="0.25"
     inkscape:showpageshadow="2"
     inkscape:pageopacity="0.0"
     inkscape:pagecheckerboard="0"
     inkscape:deskcolor="#d1d1d1"
     inkscape:document-units="mm"
     inkscape:zoom="1.4378367"
     inkscape:cx="-55.986886"
     inkscape:cy="-22.603401"
     inkscape:window-width="1920"
     inkscape:window-height="1009"
     inkscape:window-x="-8"
     inkscape:window-y="-8"
     inkscape:window-maximized="1"
     inkscape:current-layer="layer1" />
  <defs
     id="defs1" />
  <g
     inkscape:label="Layer 1"
     inkscape:groupmode="layer"
     id="layer1"
     transform="translate(-309.82721,-229.71879)">
    <path
       id="path10"
       style="fill:#dea434"
       d="m 347.53591,229.75188 c -1.18875,-0.1357 -2.44414,0.14825 -3.42046,0.8108 -0.61738,0.41896 -1.411,0.64944 -2.50631,0.72864 -1.13186,0.0819 -1.90144,0.31365 -2.61896,0.78755 -0.55887,0.36912 -1.49221,0.82493 -2.07429,1.01338 -1.60524,0.51971 -2.45927,1.2387 -3.35432,2.82463 -0.62114,1.10061 -1.08696,1.57031 -1.96784,1.98437 -1.19458,0.56152 -2.74763,2.09348 -2.74763,2.70992 0,0.19359 -0.22352,0.63584 -0.4961,0.98288 -0.27258,0.34705 -0.66131,1.21917 -0.86403,1.93787 -0.35287,1.25103 -0.42199,1.32058 -1.62832,1.62832 -0.69302,0.17679 -1.57123,0.54109 -1.9513,0.80977 -1.10104,0.77836 -1.23512,0.84451 -2.06499,1.02165 -0.43261,0.0923 -1.20652,0.61739 -1.7198,1.16685 -0.51327,0.54945 -1.25759,1.07779 -1.65416,1.17409 -0.79217,0.19245 -2.6737,1.99899 -3.27577,3.14503 -0.21023,0.40018 -0.51666,0.7276 -0.68109,0.7276 -1.18971,0 -3.38294,3.14159 -3.38894,4.85397 -10e-4,0.4141 -0.26245,1.11752 -0.57981,1.56321 -0.75886,1.06572 -0.95411,3.26078 -0.38758,4.35632 0.31636,0.61178 0.3558,1.01627 0.16485,1.68207 -0.28411,0.99063 0.0526,2.6449 0.63717,3.13004 0.1997,0.16574 0.43107,0.63915 0.51367,1.05213 0.20101,1.00505 1.28291,2.24863 2.43034,2.79312 0.51456,0.24417 1.22958,0.91007 1.58905,1.47949 0.68719,1.08859 1.82945,1.84382 2.78794,1.84382 0.31365,0 0.92416,0.29765 1.35651,0.66145 0.6039,0.50815 1.08582,0.66146 2.07946,0.66146 0.98325,0 1.59409,0.19109 2.54765,0.79582 0.97245,0.61669 1.44248,0.75992 2.09134,0.6382 0.57208,-0.10733 1.1725,0.0143 1.89704,0.38396 0.58304,0.29747 1.1282,0.47274 1.2113,0.38964 0.0831,-0.0831 0.56302,0.10322 1.0666,0.41445 0.66024,0.40806 1.30986,0.55793 2.32906,0.53743 0.77737,-0.0156 1.84668,0.0526 2.37608,0.15141 0.67726,0.12642 1.30463,0.034 2.11667,-0.31161 0.83266,-0.35441 1.48555,-0.44611 2.34456,-0.32969 l 1.19114,0.16123 -1.32344,0.0661 c -1.08726,0.0543 -1.20508,0.10392 -0.66145,0.27802 0.6158,0.19721 0.62181,0.21373 0.0822,0.23823 -0.31883,0.0145 -0.6367,0.11793 -0.7059,0.22996 -0.2074,0.33556 3.79355,-0.0919 4.14032,-0.44235 0.25215,-0.25482 0.16188,-0.26387 -0.42478,-0.0424 -0.40965,0.15468 -1.00498,0.27355 -1.32292,0.26355 -0.31795,-0.01 0.0167,-0.17757 0.74362,-0.37259 0.72687,-0.19496 1.39582,-0.30912 1.48622,-0.25322 0.20576,0.12717 0.98932,-0.71918 0.99632,-1.07642 0.006,-0.30642 1.58719,-0.70072 2.09651,-0.52296 0.20883,0.0729 0.26989,-7.1e-4 0.15503,-0.18655 -0.12496,-0.2022 -0.0454,-0.25125 0.23358,-0.14418 0.0615,0.0236 0.18455,-0.0646 0.27699,-0.0946 -0.15193,-0.0238 0.0192,-0.23631 0.77618,-0.92035 l 0.85989,-0.77722 -0.77721,0.8599 c -0.41123,0.45504 -0.7591,0.79956 -0.82734,0.82734 0.71627,-0.26524 2.07925,-1.76381 1.89704,-2.23863 -0.0811,-0.21127 0.0152,-0.37465 0.22117,-0.37465 0.46387,0 1.69239,-1.44665 1.87069,-2.20297 0.0745,-0.31621 0.17493,-0.96694 0.22273,-1.4459 0.0478,-0.47897 0.24206,-1.01475 0.43201,-1.19063 0.27493,-0.25456 0.30686,-0.23893 0.15503,0.077 -0.1049,0.21828 0.003,0.15876 0.2403,-0.13229 0.28687,-0.35212 0.38155,-0.79945 0.28215,-1.33739 -0.12523,-0.67774 -0.0228,-0.90227 0.63562,-1.38906 0.43195,-0.31936 0.90484,-0.58084 1.05058,-0.58084 0.14575,0 0.52525,-0.2679 0.84336,-0.59532 0.31815,-0.32739 0.4869,-0.43464 0.37517,-0.23822 -0.2857,0.50229 0.70077,-0.0359 1.20561,-0.65785 0.24006,-0.29571 0.25609,-0.39071 0.0444,-0.26355 -0.18324,0.11009 -0.33073,0.0713 -0.33073,-0.0873 0,-0.16125 -0.31778,-0.0818 -0.72761,0.1819 l -0.7276,0.46767 0.72037,-0.87074 c 0.39636,-0.47903 0.84114,-1.31197 0.98857,-1.85105 0.26388,-0.96488 1.85443,-2.96468 2.35799,-2.96468 0.14178,0 0.64192,-0.32313 1.11156,-0.7183 0.78923,-0.6641 0.82976,-0.67332 0.5333,-0.11938 -0.17641,0.32962 -0.611,0.73182 -0.96583,0.89349 -0.62345,0.28406 -0.91849,1.26711 -0.38034,1.26711 0.14552,0 0.26459,-0.1786 0.26459,-0.39688 0,-0.21828 0.12597,-0.39687 0.28008,-0.39687 0.15407,0 0.20281,0.14883 0.10801,0.33073 -0.0948,0.1819 0.32519,-0.18141 0.93327,-0.80771 0.68039,-0.70079 1.04703,-1.29136 0.95343,-1.5353 -0.0837,-0.21795 -0.0399,-0.32707 0.0971,-0.24237 0.38423,0.23746 0.87321,-1.96608 0.72606,-3.27163 -0.1012,-0.89782 0.0142,-1.43987 0.50178,-2.35696 0.83205,-1.56492 0.86339,-3.7443 0.0749,-5.22397 -0.30718,-0.57647 -0.74758,-1.40518 -0.97875,-1.84175 -0.27095,-0.51171 -0.39952,-1.33139 -0.36122,-2.30735 0.0661,-1.68407 -0.32075,-2.83792 -1.36891,-4.08089 -0.38585,-0.45757 -0.70445,-1.11241 -0.70745,-1.45521 -0.014,-1.5012 -1.96594,-4.19509 -3.03961,-4.19509 -0.19737,0 -0.80407,-0.54307 -1.34824,-1.20716 -1.18884,-1.45082 -2.17288,-2.00064 -3.78891,-2.11615 -0.66555,-0.0476 -1.74553,-0.28995 -2.40037,-0.53847 -0.36864,-0.13991 -0.75769,-0.23175 -1.15394,-0.27699 z m -0.84749,48.29163 c -0.0108,0.004 -0.0211,0.007 -0.0315,0.0103 0.009,10e-4 -0.0124,0.0222 -0.001,0.0222 0.002,0 0.0299,-0.0315 0.0326,-0.0325 z m 0.13591,-46.76614 c 0.82732,-0.0879 1.59801,0.0619 2.14612,0.46715 0.52779,0.39023 0.97728,0.51886 1.42213,0.40721 0.82559,-0.20721 2.32593,0.2811 2.93626,0.9555 0.45566,0.50351 0.44867,0.51935 -0.23254,0.51935 -0.92783,0 -0.88643,0.25835 0.22375,1.40146 1.02994,1.06049 1.10812,1.24437 0.52917,1.24437 -0.21828,0 -0.39687,-0.13593 -0.39687,-0.30179 0,-0.77018 -1.92152,-1.36263 -2.52698,-0.77928 -0.13824,0.1332 -0.53954,0.28203 -0.89194,0.33073 -0.82986,0.11469 -0.99933,0.64029 -0.2682,0.83148 0.68717,0.1797 0.53431,0.86475 -0.17776,0.79685 -0.27527,-0.0263 -0.59562,0.12256 -0.71211,0.33072 -0.11649,0.20815 -0.38738,0.37879 -0.60203,0.37879 -0.21466,0 -0.50637,0.30492 -0.64802,0.67748 -0.14165,0.37256 -0.37666,0.60325 -0.52245,0.51315 -0.14579,-0.0901 -0.2651,0.008 -0.2651,0.21807 0,0.20989 0.23813,0.44377 0.52917,0.51987 0.65124,0.17031 0.70318,0.96861 0.0661,1.01751 -0.25467,0.0195 -0.97706,0.008 -1.60507,-0.0253 -0.80234,-0.0427 -1.30317,0.0842 -1.68414,0.42736 -0.90389,0.81443 -1.63595,3.19699 -0.89452,2.91248 0.19193,-0.0736 0.48218,-0.0241 0.64544,0.11007 0.2092,0.17193 0.21907,0.14993 0.0326,-0.0739 -0.45951,-0.55141 -0.28841,-1.53526 0.38447,-2.20814 0.72933,-0.72933 2.08249,-0.91591 1.82779,-0.25218 -0.11197,0.29181 0.0347,0.39688 0.55501,0.39688 0.60598,0 0.68444,-0.0855 0.54415,-0.59532 -0.16147,-0.58673 -0.15814,-0.58772 0.25787,-0.0661 0.23214,0.29104 0.48901,0.79474 0.57051,1.11931 0.18955,0.75486 -0.63899,2.19115 -1.56322,2.70991 -0.60549,0.33985 -0.82653,0.34481 -1.57458,0.0336 -0.97458,-0.40546 -2.00245,-0.45787 -2.33319,-0.11885 -0.1206,0.12363 -0.29596,0.53667 -0.39016,0.91829 -0.14609,0.59198 -0.0699,0.71935 0.5209,0.86764 0.93168,0.23383 0.62435,0.63459 -0.48679,0.63459 -1.25743,0 -1.93185,0.43636 -2.55075,1.64951 -0.63847,1.25151 -1.1818,1.41449 -0.67179,0.20154 0.46057,-1.09537 1.3641,-2.02605 2.16162,-2.22622 0.49914,-0.12527 0.63149,-0.33382 0.63149,-0.99684 0,-0.46117 0.18887,-1.1085 0.42013,-1.43867 0.48512,-0.69261 0.29896,-1.50309 -0.29042,-1.26452 -1.15948,0.46934 -1.33677,0.48054 -0.81081,0.0517 0.28042,-0.22866 0.4194,-0.50636 0.30851,-0.61701 -0.25136,-0.25078 -1.47949,1.14168 -1.47949,1.67741 0,0.22057 0.19104,0.35935 0.43511,0.31575 0.62769,-0.11203 0.76274,0.5471 0.1602,0.78238 -0.57139,0.22312 -1.93304,1.72297 -2.44068,2.68821 -0.29543,0.56174 -0.36483,0.58535 -0.58136,0.19843 -0.33808,-0.60414 -1.68867,-0.55771 -2.32647,0.0801 -0.55798,0.55753 -0.23892,1.05868 0.35863,0.56276 0.25741,-0.21363 0.47023,-0.14817 0.83768,0.25786 0.40622,0.44886 0.42869,0.5838 0.1266,0.7705 -0.25427,0.15714 -0.34835,0.67816 -0.30695,1.70222 0.0512,1.26645 -0.0341,1.56993 -0.60307,2.13889 -0.36463,0.36463 -0.86742,0.66301 -1.11724,0.66301 -0.24982,0 -0.66195,0.18794 -0.91623,0.41806 -0.42387,0.38359 -0.50849,0.37259 -1.01337,-0.13229 -0.60874,-0.60873 -1.34303,-0.7106 -1.80299,-0.25063 -0.16484,0.16489 -0.48611,0.22806 -0.71417,0.14056 -0.59316,-0.22761 -0.52099,-1.58476 0.11472,-2.16008 0.72098,-0.65244 0.68637,-1.24996 -0.0661,-1.14308 -0.38433,0.0546 -0.77072,0.44315 -1.08986,1.09657 -0.27189,0.55667 -0.77791,1.14176 -1.12448,1.29967 -0.76693,0.34941 -0.83608,0.73531 -0.0971,0.54208 0.40092,-0.10485 0.49456,-0.0383 0.37672,0.26872 -0.0887,0.2311 0.0817,0.64699 0.39274,0.95808 0.72802,0.72799 0.69467,0.82985 -0.21187,0.64854 -0.92738,-0.18547 -1.79677,0.22564 -2.68769,1.27072 -0.62001,0.72729 -0.72675,0.76185 -1.40302,0.45372 -0.61875,-0.28192 -0.8484,-0.26462 -1.48621,0.11214 -1.11723,0.65997 -1.33429,0.56056 -1.33429,-0.61237 0,-1.09057 -0.37772,-1.36895 -1.00562,-0.74104 -0.45608,0.4561 -0.40026,1.09417 0.0796,0.91003 1.15173,-0.44195 -0.43134,1.70957 -2.07481,2.81998 -0.44888,0.30328 -0.70331,0.7159 -0.70331,1.13998 0,0.3656 -0.11406,0.5945 -0.25322,0.5085 -0.13915,-0.086 -0.1934,-0.31251 -0.1204,-0.50282 0.073,-0.19031 -0.0649,-0.51005 -0.30645,-0.71055 -0.38194,-0.31699 -0.50415,-0.28402 -0.93792,0.25167 -0.27436,0.33882 -0.49868,0.99705 -0.49868,1.46244 0,0.46539 -0.17164,1.07714 -0.38137,1.35961 -0.2097,0.28247 -0.31616,0.78155 -0.23616,1.10897 h -5.2e-4 c 0.19305,0.79032 -0.0605,0.75339 -0.61237,-0.0889 -0.3815,-0.58232 -0.39239,-0.71935 -0.0723,-0.92191 0.28722,-0.18181 0.29428,-0.23884 0.0294,-0.24184 -0.23739,-0.003 -0.32078,-0.31096 -0.26458,-0.97617 0.0996,-1.17831 0.7273,-1.53184 0.7798,-0.43925 0.0316,0.6567 0.0505,0.67342 0.15348,0.13281 0.0646,-0.33942 -0.0566,-0.81568 -0.26924,-1.05834 -0.25495,-0.29102 -0.31349,-0.62144 -0.17208,-0.97048 0.31268,-0.7718 0.29385,-0.92604 -0.11421,-0.92604 -0.20131,0 -0.43106,0.24885 -0.51056,0.55294 -0.11013,0.42119 -0.27678,0.51078 -0.69918,0.37672 -0.45131,-0.14325 -0.60732,-0.0246 -0.83819,0.63769 -0.15602,0.44756 -0.39487,0.8139 -0.53072,0.8139 -0.44992,0 -0.56994,-0.81692 -0.22583,-1.53841 0.18644,-0.3909 0.35127,-0.99779 0.36587,-1.34875 0.0146,-0.35096 0.18782,-0.69273 0.38499,-0.75913 0.26712,-0.09 0.30912,0.039 0.16537,0.50591 -0.1057,0.34461 -0.10205,0.54104 0.009,0.43615 0.11084,-0.10488 0.22071,-0.78848 0.24391,-1.51877 0.0519,-1.6367 0.69119,-2.58571 2.25361,-3.34605 0.65408,-0.3183 1.27185,-0.85156 1.43919,-1.24178 0.47679,-1.1118 1.98408,-2.57385 2.82722,-2.74247 0.46887,-0.0938 0.95668,-0.44996 1.2144,-0.88625 0.44793,-0.75828 1.86282,-1.58337 2.71456,-1.58337 0.27054,0 0.56276,-0.18391 0.64906,-0.40876 0.17635,-0.45956 1.67521,-1.15636 2.6634,-1.23816 0.35785,-0.0296 0.595,-0.10935 0.5271,-0.17725 -0.18172,-0.18171 1.25337,-1.61541 1.61695,-1.61541 0.18518,0 0.26164,-0.25645 0.18914,-0.63562 -0.0792,-0.41411 0.0719,-0.82897 0.43356,-1.19063 0.30528,-0.30528 0.55549,-0.70383 0.55604,-0.88573 0.003,-1.01885 2.22744,-3.17378 2.7435,-2.65772 0.0912,0.0912 0.17506,-0.0622 0.18656,-0.34106 0.0129,-0.31288 0.0744,-0.37309 0.16071,-0.1571 0.17471,0.43717 1.40612,-0.63533 1.40612,-1.22473 0,-0.61232 1.02644,-2.10916 1.84691,-2.69338 0.41315,-0.29419 1.08891,-0.55759 1.50224,-0.58549 0.41334,-0.0279 1.08277,-0.3205 1.48724,-0.65009 0.81817,-0.66672 2.21726,-1.01443 3.27164,-0.81287 0.4908,0.0938 1.02392,-0.10084 1.82883,-0.66818 0.77416,-0.54568 1.65779,-0.87123 2.48512,-0.95911 z m 1.86552,1.55546 c -0.14552,0 -0.26459,0.11906 -0.26459,0.26458 0,0.14552 0.11907,0.26459 0.26459,0.26459 0.14552,0 0.26458,-0.11907 0.26458,-0.26459 0,-0.14552 -0.11906,-0.26458 -0.26458,-0.26458 z m 1.26348,0.26458 c -0.60567,0 -0.61069,0.50222 -0.007,0.68885 0.25453,0.0787 0.64104,0.24614 0.85938,0.37259 h 5.1e-4 c 0.53269,0.30853 0.79324,0.31292 0.79324,0.0119 0,-0.36004 -1.09417,-1.07332 -1.64642,-1.07332 z m -6.99543,1.25936 c -0.33322,-0.18552 -1.94097,0.30581 -1.94097,0.59324 v 5.2e-4 c 0,0.139 0.38231,0.1786 0.8599,0.0894 0.93615,-0.17491 1.43164,-0.48798 1.08107,-0.68316 z m 3.71398,0.0636 c -1.54062,0 -2.78762,1.70307 -1.89807,2.59261 0.43685,0.43682 0.61022,0.40099 0.23667,-0.0491 -0.24081,-0.29016 -0.13287,-0.51169 0.51677,-1.05833 0.84533,-0.7113 1.68398,-0.89283 1.97197,-0.42685 0.28061,0.45404 0.92604,0.28896 0.92604,-0.23667 0,-0.59016 -0.49458,-0.82166 -1.75338,-0.82166 z m 5.1294,1.37356 c 0.61978,-0.0915 1.25752,0.80164 1.01803,1.42575 -0.0794,0.20691 -0.0288,0.37621 0.11214,0.37621 0.14096,0 0.25629,-0.14883 0.25683,-0.33073 5.5e-4,-0.1819 0.25395,0.086 0.56276,0.59531 0.30881,0.50932 0.67981,1.00169 0.82475,1.09399 0.14467,0.0923 0.20956,0.32983 0.14366,0.52762 -0.0756,0.22695 -0.35577,-0.005 -0.75964,-0.62787 -0.36312,-0.56012 -0.85593,-0.98812 -1.13895,-0.99012 -0.58599,-0.004 -1.82051,-1.24496 -1.67587,-1.68465 0.0549,-0.16676 0.35011,-0.34031 0.65629,-0.38551 z m -12.55892,0.26355 c -0.78062,-0.11159 -2.61205,1.55033 -2.37867,2.15852 0.22704,0.59167 0.6216,0.55213 0.78652,-0.0785 0.18847,-0.72071 1.81565,-1.69185 2.11357,-1.26143 0.14788,0.21341 0.19504,0.14387 0.14004,-0.2067 -0.0484,-0.30835 -0.32441,-0.56365 -0.66146,-0.61185 z m 9.1829,0.21497 c -0.0136,-0.0137 -0.1209,0.0659 -0.33073,0.23048 -0.25466,0.19972 -0.46302,0.40802 -0.46302,0.46302 0,0.21776 0.21711,0.078 0.56276,-0.36277 0.16455,-0.20982 0.24465,-0.31707 0.23099,-0.33073 z m 6.43424,0.0987 c 0.17182,0.0252 0.35112,0.15948 0.39842,0.29817 0.14156,0.41513 -0.40546,0.4522 -0.56431,0.0382 -0.0806,-0.21008 -0.006,-0.36161 0.16589,-0.33641 z m -11.00243,0.28525 c -0.45717,-0.17543 -1.78181,0.30631 -1.78181,0.64802 0,0.13845 0.20836,0.2996 0.46302,0.3576 0.8574,0.19523 2.05943,-0.72141 1.31879,-1.00562 z m 10.11566,0.15916 c 0.13858,0.0483 0.29838,0.20004 0.38344,0.42168 0.0917,0.23911 0.12598,0.47502 0.0765,0.52452 -0.12592,0.12592 -0.71572,-0.49035 -0.71572,-0.74776 0,-0.19196 0.11722,-0.24679 0.2558,-0.19844 z m -20.8933,0.51573 c 0.14552,0 0.26245,0.0898 0.26045,0.19896 -0.002,0.10914 -0.11939,0.37651 -0.26045,0.59479 -0.20743,0.32093 -0.25797,0.28347 -0.26097,-0.19792 -0.002,-0.32742 0.11545,-0.59583 0.26097,-0.59583 z m 15.63264,0.9524 c 0.15358,0.0348 0.23124,0.17466 0.0987,0.38912 -0.0837,0.13547 -0.33835,0.24598 -0.56586,0.24598 -0.33634,0 -0.35265,-0.0734 -0.0868,-0.39377 0.17081,-0.20581 0.40039,-0.27608 0.55397,-0.24133 z m 7.41505,0.1664 c 0.26663,-0.0532 0.54727,0.20869 0.75086,0.70021 0.17881,0.43178 0.28494,0.98679 0.23564,1.23352 -0.0823,0.41236 -0.13666,0.40894 -0.66921,-0.045 -0.72328,-0.61646 -0.91676,-1.76924 -0.31729,-1.88877 z m 1.89136,0.24546 c 0.0426,0.009 0.11311,0.11126 0.22841,0.30954 0.15445,0.26557 0.23026,0.53352 0.16846,0.59532 -0.18752,0.18752 -0.46634,-0.21382 -0.45734,-0.6594 0.003,-0.17204 0.0179,-0.25488 0.0605,-0.24546 z m -13.1036,0.0362 c -0.28815,-0.016 -0.66376,0.13953 -1.08158,0.46819 -0.57057,0.44881 -0.65618,0.64273 -0.4129,0.93586 0.35347,0.4259 0.3313,0.42066 0.88212,0.20929 0.23018,-0.0883 0.41858,-0.32275 0.41858,-0.5209 0,-0.22167 0.16302,-0.29796 0.42374,-0.19792 0.31139,0.1195 0.39823,0.0306 0.32763,-0.33589 -0.0685,-0.3556 -0.26943,-0.54266 -0.55759,-0.55863 z m -3.27783,0.002 c -0.5239,-0.20104 -2.05756,1.3732 -1.77819,1.82522 0.11332,0.18336 0.36978,0.031 0.69091,-0.4098 0.28101,-0.38577 0.73913,-0.70125 1.01803,-0.70125 0.62222,0 0.66924,-0.48393 0.0693,-0.71417 z m 7.7773,0.31471 c 0.2202,-0.0174 0.395,0.38775 0.23306,0.80977 -0.0811,0.21131 -0.27004,0.38396 -0.42013,0.38396 -0.32998,0 -0.34972,-0.52769 -0.0377,-1.02009 0.0727,-0.1147 0.15139,-0.16782 0.22479,-0.17364 z m -3.37499,0.005 c -0.14788,0.0914 -0.19997,0.27692 -0.11627,0.41238 0.22681,0.36699 0.38551,0.29834 0.38551,-0.1664 0,-0.22691 -0.12135,-0.33738 -0.26924,-0.24598 z m 4.78111,0.65939 c 0.56601,0 0.7952,0.31323 1.04903,1.43247 0.1912,0.84309 0.25921,0.78231 0.69039,-0.6165 0.084,-0.27254 0.19536,-0.29557 0.4067,-0.0842 0.21134,0.21134 0.15381,0.52462 -0.20981,1.14722 -0.57154,0.97863 -0.79776,1.08744 -1.59732,0.76636 -0.76707,-0.30803 -1.07535,-0.92162 -0.93689,-1.865 0.0788,-0.53719 0.26484,-0.78032 0.5979,-0.78032 z m -8.77105,0.14986 c -0.0696,-0.0696 -0.28432,0.13602 -0.47697,0.45682 -0.33468,0.55729 -0.32899,0.56298 0.12661,0.12661 0.26228,-0.2512 0.41996,-0.51383 0.35036,-0.58343 z m -6.37532,0.21188 c -0.255,0.0361 -0.59288,0.24881 -1.03042,0.63975 -0.57679,0.51536 -0.80385,0.91134 -0.69092,1.20561 0.0925,0.24102 0.38053,0.43609 0.63976,0.43409 0.34481,-0.003 0.37974,-0.0619 0.13125,-0.21963 -0.25612,-0.16251 -0.16684,-0.38816 0.36277,-0.91777 0.38629,-0.38628 0.82262,-0.62824 0.96945,-0.53744 0.14695,0.0907 0.21426,0.007 0.14986,-0.18603 -0.10474,-0.31424 -0.27674,-0.45465 -0.53175,-0.41858 z m 19.36575,0.29972 c 0.14552,0.0899 0.26458,0.27597 0.26458,0.4129 0,0.13694 -0.11906,0.24856 -0.26458,0.24856 -0.14553,0 -0.26459,-0.18551 -0.26459,-0.41238 0,-0.22687 0.11906,-0.33898 0.26459,-0.24908 z m -5.93763,0.39688 c 0.22686,0 0.33898,0.11906 0.24908,0.26458 -0.0899,0.14552 -0.27595,0.26458 -0.41289,0.26458 -0.13693,0 -0.24856,-0.11906 -0.24856,-0.26458 0,-0.14552 0.1855,-0.26458 0.41237,-0.26458 z m -5.88026,0.015 c -0.12757,-0.0143 -0.42224,0.11551 -0.8232,0.39636 -0.33483,0.23452 -0.58808,0.69024 -0.58808,1.05833 0,0.39824 0.15239,0.64648 0.39687,0.64648 0.23093,0 0.39688,-0.24039 0.39688,-0.57465 0,-0.31597 0.19687,-0.79221 0.4377,-1.05833 0.26765,-0.29577 0.3074,-0.45392 0.17983,-0.46819 z m -4.3558,0.12661 c -0.0654,-0.0654 -0.47139,0.16929 -0.90227,0.52142 -0.54129,0.44236 -0.65332,0.64257 -0.36174,0.64957 0.43326,0.01 1.47746,-0.95755 1.26401,-1.17099 z m -5.8751,0.21032 c -0.19216,-0.19217 -0.96996,0.3996 -0.96996,0.73794 0,0.1277 0.10432,0.23255 0.23202,0.23255 0.33834,0 0.93011,-0.77833 0.73794,-0.97049 z m 6.98304,0.44132 c -0.15411,0 -0.28009,0.11906 -0.28009,0.26458 0,0.14552 0.0521,0.26459 0.11627,0.26459 0.0642,0 0.19071,-0.11907 0.28061,-0.26459 0.0899,-0.14552 0.0373,-0.26458 -0.11679,-0.26458 z m 18.15393,0.27285 c 0.19741,-0.21334 0.60785,0.62385 0.61185,1.24902 0.006,0.90979 -0.44819,0.70823 -0.59635,-0.26458 -0.072,-0.47294 -0.0789,-0.91594 -0.0155,-0.98444 z m -2.65307,0.60772 c 0.13948,-0.0142 0.29068,0.006 0.45114,0.0677 0.49954,0.1917 0.8239,0.99575 0.45165,1.11983 -0.15384,0.0513 -0.27957,0.49324 -0.27957,0.98185 0,1.12443 -0.36081,1.35278 -1.04903,0.66456 -0.9566,-0.95659 -0.55055,-2.73445 0.42581,-2.83393 z m -8.36021,0.85214 c -0.45919,0.0531 -1.40401,0.54699 -1.61489,0.94103 -0.20397,0.38112 -0.17934,0.50126 0.10232,0.50126 0.44026,0 1.76475,-0.99721 1.76475,-1.3286 0,-0.10021 -0.0991,-0.13139 -0.25218,-0.11369 z m -9.29142,0.13126 c -0.45703,-0.0164 -0.96004,0.0682 -1.3193,0.26045 -0.57038,0.30526 -1.30793,1.58276 -1.30793,2.26498 0,0.24585 0.20836,0.60508 0.46302,0.7984 0.6532,0.49588 0.8319,0.45071 0.66972,-0.1695 -0.17912,-0.68495 0.44171,-1.37299 1.78491,-1.97869 0.83031,-0.3744 0.98777,-0.54809 0.75344,-0.83044 -0.17546,-0.21143 -0.58684,-0.32884 -1.04386,-0.3452 z m -5.29994,0.56379 c -0.12124,-0.007 -0.28423,0.0163 -0.48524,0.0801 -0.60535,0.19213 -1.3523,1.42337 -1.3193,2.17506 0.0122,0.27752 0.0767,0.33849 0.15451,0.14573 0.0734,-0.1819 0.30182,-0.33073 0.50798,-0.33073 0.20615,0 0.37517,-0.22384 0.37517,-0.49713 0,-0.27329 0.26789,-0.67698 0.59532,-0.8971 0.5198,-0.34947 0.5353,-0.65346 0.17156,-0.67593 z m 26.3803,1.34875 c 0.0879,0.0879 0.10988,0.3102 0.0486,0.49403 -0.0896,0.26893 -0.15215,0.26869 -0.31884,-0.001 -0.22067,-0.35705 0.001,-0.76195 0.27026,-0.493 z m -9.77666,0.22273 c 0.14251,0.0564 -0.0164,0.50703 -0.35347,1.00149 -0.47849,0.70185 -0.61288,0.78555 -0.61288,0.38137 0,-0.64012 0.61585,-1.52159 0.96635,-1.38286 z m 7.94938,0.0847 c 0.0909,0.0273 0.10104,0.1665 -0.0413,0.39687 -0.0959,0.1552 -0.30103,0.28216 -0.45578,0.28216 -0.17546,0 -0.15547,-0.15162 0.0532,-0.40308 0.18143,-0.21862 0.35305,-0.30328 0.4439,-0.27595 z m -18.22679,0.14934 c -0.0728,0 -0.34743,0.23813 -0.61082,0.52917 -0.26339,0.29104 -0.41954,0.52917 -0.34674,0.52917 0.0728,0 0.34794,-0.23813 0.61133,-0.52917 0.2634,-0.29104 0.41903,-0.52917 0.34623,-0.52917 z m 11.79721,0.031 c 0.29445,0.003 0.61433,0.17556 1.05007,0.51831 0.7492,0.58932 0.93931,1.11533 0.31677,0.87644 -0.2523,-0.0968 -0.56609,0.21763 -0.93172,0.93431 -0.30311,0.59416 -0.70313,1.08003 -0.88935,1.08003 -1.03767,0 -1.34463,-2.0102 -0.44442,-2.91041 0.33516,-0.33516 0.60421,-0.50158 0.89865,-0.49868 z m -6.19083,0.36638 c 0.14579,0.0901 0.2651,0.26262 0.2651,0.38344 0,0.35488 -1.03955,1.49973 -1.04955,1.15549 -0.0177,-0.63018 0.52671,-1.69822 0.78445,-1.53893 z m -10.25571,0.28268 c -0.16672,-0.16672 -1.65003,1.13965 -1.65003,1.45314 0,0.10011 0.29108,0.1819 0.64699,0.1819 0.4703,0 0.71732,-0.20196 0.90434,-0.73846 0.1415,-0.406 0.1859,-0.80938 0.0987,-0.89658 z m 24.82433,0.23667 c 0.3776,-0.23337 1.10159,1.12612 0.91415,1.71669 -0.0946,0.29817 -0.26904,0.54209 -0.38705,0.54209 -0.30821,0 -0.79645,-2.09232 -0.5271,-2.25878 z m -12.30365,0.14211 c 0.0642,0 0.11679,0.11907 0.11679,0.26459 0,0.14552 -0.12649,0.26458 -0.2806,0.26458 -0.15407,0 -0.20617,-0.11906 -0.11627,-0.26458 0.0899,-0.14552 0.21588,-0.26459 0.28008,-0.26459 z m -12.04319,0.57413 c -0.0914,0.0102 -0.18372,0.0708 -0.262,0.1974 -0.126,0.20387 -0.16792,0.52992 -0.093,0.72502 0.18616,0.48512 0.51731,0.44557 0.72141,-0.0863 0.17079,-0.44505 -0.0923,-0.86672 -0.36639,-0.83612 z m 20.31039,0.57257 c 0.0829,0.0149 0.14247,0.10628 0.20877,0.27906 0.09,0.23467 0.0952,0.60492 0.0114,0.8232 -0.21803,0.56819 -0.96221,0.49109 -0.96221,-0.0997 0,-0.27322 0.17721,-0.644 0.39377,-0.82373 0.15944,-0.13232 0.26536,-0.19366 0.3483,-0.1788 z m -9.28005,0.30386 c 0.0646,0.097 -0.0441,0.30046 -0.37724,0.53382 -0.30178,0.21138 -0.62425,0.78764 -0.71675,1.28054 -0.0925,0.4929 -0.39933,1.10517 -0.68162,1.36064 -0.76868,0.69564 -2.70486,0.84554 -3.19102,0.24701 -0.3405,-0.41919 -0.33881,-0.44974 0.0109,-0.25424 0.32272,0.18046 0.3346,0.15542 0.0656,-0.13436 -0.39949,-0.43043 -0.44184,-1.83813 -0.0553,-1.83813 0.15141,0 0.62037,-0.2548 1.0418,-0.56638 0.59172,-0.43747 0.98933,-0.53003 1.74614,-0.40721 0.53901,0.0875 1.21144,0.0347 1.49449,-0.11679 0.3602,-0.19277 0.59837,-0.20188 0.66301,-0.1049 z m -13.73302,0.0739 c -0.24412,-0.0937 -0.66362,0.18974 -1.11052,0.74982 -0.87226,1.09316 -0.48834,1.18002 0.66404,0.15038 0.64467,-0.57602 0.74798,-0.78451 0.44648,-0.9002 z m -3.81992,0.3793 c -1.55365,-0.15133 -3.33547,1.95971 -2.30993,2.73679 0.26786,0.20297 0.78496,0.35516 1.14876,0.33796 0.62871,-0.0297 0.62539,-0.0368 -0.0661,-0.14159 -0.91758,-0.139 -0.92934,-0.67169 -0.0305,-1.37873 0.77784,-0.61184 1.82747,-0.72317 2.05052,-0.21756 0.0802,0.1819 0.11955,-0.0265 0.0879,-0.46302 -0.0494,-0.67958 -0.17599,-0.80525 -0.88057,-0.87385 z m 16.21193,0.41135 c -0.0734,-0.1819 -0.13384,-0.0331 -0.13384,0.33073 0,0.36383 0.0604,0.51263 0.13384,0.33073 0.0734,-0.1819 0.0734,-0.47956 0,-0.66146 z m 13.3718,0.14262 c 0.261,0.028 0.47594,0.18774 0.47594,0.46044 0,0.15866 -0.13695,0.20392 -0.30386,0.10077 -0.21845,-0.13502 -0.26477,0.1556 -0.16537,1.03766 0.14928,1.32438 -0.23582,2.0121 -0.80718,1.44074 -0.42302,-0.423 -0.39341,-2.10843 0.0475,-2.71146 0.18489,-0.25285 0.49192,-0.35619 0.75293,-0.32815 z m -33.47755,0.2186 c -0.17068,-0.0975 -0.58385,0.11928 -1.15548,0.62218 -0.40832,0.3592 -0.58906,0.65646 -0.40204,0.66146 0.4431,0.0109 1.64434,-0.77853 1.64434,-1.08056 0,-0.10336 -0.0299,-0.1706 -0.0868,-0.20308 z m 36.33474,0.1018 c 0.14552,0.0899 0.26245,0.36525 0.26045,0.61133 -0.002,0.24607 -0.11939,0.6256 -0.26045,0.84388 -0.19044,0.29461 -0.25797,0.1373 -0.26097,-0.61082 -0.002,-0.60536 0.10204,-0.94259 0.26097,-0.84439 z m -26.66969,0.41393 c -0.42953,0.004 -0.89765,0.1315 -1.38183,0.38189 -1.39974,0.72383 -1.7621,2.3407 -0.73846,3.29437 0.64424,0.6002 0.95351,0.71933 0.54209,0.20877 -0.39015,-0.48415 0.0282,-1.34644 1.03973,-2.14354 1.00578,-0.79253 0.87879,-0.8725 -0.48214,-0.30386 -0.86892,0.36303 -0.91961,0.36037 -0.59738,-0.0279 0.58217,-0.70149 1.59734,-0.97025 2.28151,-0.6041 0.77203,0.41318 1.16909,0.0494 0.48886,-0.44803 -0.33168,-0.24252 -0.72285,-0.36174 -1.15238,-0.3576 z m 9.84074,0.0119 c -0.35409,-0.0999 -0.8962,0.20063 -1.61334,0.8971 l -0.95395,0.92605 h 0.84646 c 0.90327,0 2.30817,-1.10997 2.01177,-1.58957 -0.0757,-0.12247 -0.17291,-0.20029 -0.29094,-0.23358 z m -14.92105,0.49971 c -0.0137,-0.0137 -0.12091,0.0659 -0.33073,0.23048 -0.25466,0.19972 -0.46302,0.40802 -0.46302,0.46302 v 5.2e-4 c 0,0.21776 0.21711,0.0774 0.56275,-0.36329 0.16455,-0.20982 0.24465,-0.31707 0.231,-0.33073 z m 18.70325,0.0243 c 0.21663,-7.7e-4 0.41405,0.13597 0.6413,0.4098 0.31053,0.37416 0.27905,0.48643 -0.23203,0.82578 -0.32543,0.21607 -0.59169,0.55705 -0.59169,0.75758 0,0.37682 -0.15991,0.41872 -0.7276,0.18965 -0.49237,-0.19867 -0.39994,-1.26799 0.15296,-1.76836 0.30456,-0.27577 0.54043,-0.41368 0.75706,-0.41445 z m -10.75025,0.5054 c 0.15408,0 0.20669,0.11906 0.11679,0.26458 -0.0899,0.14552 -0.21641,0.26458 -0.28061,0.26458 -0.0642,0 -0.11627,-0.11906 -0.11627,-0.26458 0,-0.14552 0.12598,-0.26458 0.28009,-0.26458 z m 14.69264,0.33279 c 0.0666,0.0666 -0.0603,0.27172 -0.28215,0.45579 -0.25145,0.20867 -0.40308,0.22867 -0.40308,0.0532 0,-0.31976 0.50174,-0.69251 0.68523,-0.50902 z m -30.2643,0.19586 c -0.61175,0 -1.75988,1.18276 -1.52187,1.56786 0.25469,0.41211 0.33543,0.37348 1.19889,-0.57568 0.57866,-0.63608 0.78413,-0.74326 0.79013,-0.41186 0.004,0.24641 -0.2569,0.63337 -0.58032,0.8599 -0.32339,0.22653 -0.46128,0.41186 -0.30593,0.41186 0.48089,0 1.23116,-1.01659 1.06661,-1.44539 -0.0858,-0.2237 -0.37726,-0.40669 -0.64751,-0.40669 z m 38.83897,0.1912 c 0.0967,-0.0847 0.16899,-0.0761 0.20619,0.0341 0.0662,0.19626 -0.0326,0.64273 -0.21962,0.99218 -0.18703,0.34945 -0.43925,0.63511 -0.56018,0.63511 -0.31241,0 -0.27781,-0.17905 0.21963,-1.1374 0.13575,-0.26152 0.25724,-0.43934 0.35398,-0.524 z m -21.8121,0.33848 c 0.0642,0 0.11679,0.11905 0.11679,0.26458 0,0.14552 -0.1265,0.26459 -0.28061,0.26459 -0.15408,0 -0.20617,-0.11907 -0.11627,-0.26459 0.0899,-0.14553 0.21589,-0.26458 0.28009,-0.26458 z m 15.44298,0.37259 c 0.18706,0.037 0.37111,0.12818 0.54467,0.28525 0.47098,0.42624 0.46176,0.47958 -0.28318,1.58337 -0.42405,0.62834 -0.77102,1.26734 -0.77102,1.41955 0,0.56286 -0.52659,0.57515 -1.07642,0.0253 -1.16728,-1.16729 0.27657,-3.57228 1.58595,-3.31349 z m -5.07049,0.0258 c 0.0957,0.0305 0.0593,0.21339 -0.19637,0.52141 -0.18408,0.2218 -0.45745,0.40308 -0.60771,0.40308 -0.15025,0 -0.0575,-0.23879 0.2067,-0.53072 0.27359,-0.30231 0.50169,-0.42423 0.59738,-0.39377 z m -13.09946,0.0336 c -0.0892,-0.0389 -0.31546,0.004 -0.74207,0.0997 -1.06835,0.24095 -1.70584,0.69654 -1.70584,1.21956 0,0.20046 0.12475,0.36484 0.2775,0.36484 0.53161,0 1.82499,-0.80272 2.08928,-1.29656 0.12242,-0.22874 0.17036,-0.3487 0.0811,-0.38758 z m 26.0997,0.32557 -0.15606,1.01027 c -0.19194,1.24261 -0.19509,1.24665 -0.59841,0.76068 -0.26658,-0.32121 -0.2265,-0.52388 0.21342,-1.08314 z m -33.39021,0.13177 c -0.10839,-0.10839 -0.3984,0.004 -0.6444,0.25012 -0.4782,0.4782 -0.19198,0.60064 0.45216,0.19327 0.21404,-0.13538 0.30063,-0.335 0.19224,-0.44339 z m 2.51406,0.16847 c -0.27491,0 -0.84646,0.57341 -0.84646,0.84904 0,0.11765 0.23812,0.065 0.52917,-0.11679 0.53457,-0.33384 0.70712,-0.73225 0.31729,-0.73225 z m 9.74669,0.0966 c 0.44703,-0.0462 0.80347,0.43124 0.50436,0.99012 -0.14758,0.27576 -0.44683,0.50126 -0.66456,0.50126 -0.59178,0 -0.77478,-0.77551 -0.2961,-1.25418 0.14824,-0.14824 0.30729,-0.2218 0.4563,-0.2372 z m -21.7811,0.19172 c -0.0576,-0.0363 -0.24068,0.0122 -0.5643,0.13643 -0.23018,0.0883 -0.41858,0.26692 -0.41858,0.39687 0,0.36598 0.42871,0.27964 0.79375,-0.1602 0.17876,-0.21539 0.24673,-0.33683 0.18913,-0.3731 z m 5.65289,0.001 c -0.50547,0.0944 -1.0254,0.39702 -1.53118,0.90279 -0.76591,0.76589 -0.89739,1.0545 -0.75292,1.65365 0.0962,0.39921 0.3701,0.87488 0.60823,1.05678 0.23813,0.1819 0.67812,0.31436 0.97772,0.29456 0.49583,-0.0328 0.49125,-0.0465 -0.0506,-0.1509 -1.1733,-0.22599 -0.51632,-1.37254 1.12706,-1.9668 0.95629,-0.3458 1.2327,-0.75655 0.50901,-0.75655 -0.22785,0 -0.67434,0.12584 -0.99219,0.27957 -0.51896,0.251 -0.51169,0.22167 0.0718,-0.28525 0.42932,-0.37292 0.8764,-0.52107 1.31775,-0.43667 0.63149,0.12072 0.64041,0.10709 0.15968,-0.24443 -0.44799,-0.32758 -0.93888,-0.44118 -1.44435,-0.34675 z m 4.82296,0.80409 c 0.12091,0.0612 0.18293,0.27057 0.18293,0.62683 0,0.38899 -0.15222,0.66146 -0.36897,0.66146 -0.49555,0 -0.72048,-0.6572 -0.3514,-1.02629 0.23651,-0.23651 0.41653,-0.32322 0.53744,-0.262 z m 15.53187,0.006 c 0.13059,-0.005 0.25059,0.0992 0.46043,0.30903 0.41968,0.41968 0.40621,0.48779 -0.21652,1.11052 -0.52008,0.52008 -0.73268,0.59386 -0.98444,0.3421 -0.45933,-0.45933 -0.39824,-0.85699 0.21653,-1.41335 0.25225,-0.22829 0.39341,-0.34309 0.524,-0.3483 z m 5.22552,0.093 c 0.0957,0.0305 0.0593,0.21339 -0.19637,0.52141 -0.18408,0.2218 -0.45747,0.40308 -0.60772,0.40308 -0.15026,0 -0.0575,-0.23878 0.20671,-0.53072 0.27359,-0.30231 0.50169,-0.42422 0.59738,-0.39377 z m 9.22682,0.17622 c 0.15512,0.0169 0.29056,0.0996 0.39016,0.25683 0.30015,0.47373 0.29384,0.75602 -0.0165,0.75602 -0.13853,0 -0.6202,0.53579 -1.07074,1.19063 -1.29597,1.88362 -1.80779,1.35772 -0.81235,-0.83458 0.39987,-0.88065 1.04413,-1.41973 1.50946,-1.3689 z m -2.55643,0.2191 c 0.14018,0 0.12194,0.36595 -0.0429,0.8599 -0.35346,1.05931 -0.63061,1.3895 -0.85731,1.02268 -0.20214,-0.32707 0.54172,-1.88258 0.9002,-1.88258 z m -36.37297,0.26407 c -0.3638,0 -0.66146,0.11906 -0.66146,0.26458 0,0.14552 0.29766,0.26459 0.66146,0.26459 0.3638,0 0.66146,-0.11907 0.66146,-0.26459 0,-0.14552 -0.29766,-0.26458 -0.66146,-0.26458 z m 7.27604,0.52917 c -0.29104,0 -0.52917,0.10788 -0.52917,0.23978 0,0.13193 0.23813,0.17738 0.52917,0.10128 0.29104,-0.0761 0.52917,-0.18398 0.52917,-0.23978 0,-0.0558 -0.23813,-0.10128 -0.52917,-0.10128 z m 8.73125,5.1e-4 c 0.14552,0 0.26458,0.11907 0.26458,0.26459 0,0.14552 -0.11906,0.26458 -0.26458,0.26458 -0.14552,0 -0.26458,-0.11906 -0.26458,-0.26458 0,-0.14552 0.11906,-0.26459 0.26458,-0.26459 z m -18.58646,0.49765 c -1.30348,0.11625 -2.7807,1.84257 -2.05931,3.1905 0.3812,0.71229 0.67831,0.69175 0.73381,-0.0506 0.0931,-1.24397 0.3559,-1.74862 1.18287,-2.27222 0.67993,-0.4305 0.93576,-0.47667 1.25832,-0.22582 0.35444,0.27566 0.35971,0.2575 0.0419,-0.1478 -0.30799,-0.39271 -0.72306,-0.53277 -1.15755,-0.49402 z m 16.90129,0.0315 c 0.23182,0 0.36473,0.18559 0.31523,0.4408 -0.10306,0.5314 -0.63142,0.75413 -0.87075,0.3669 -0.23263,-0.37641 0.064,-0.8077 0.55552,-0.8077 z m 24.75611,0.32194 c 0.21948,-0.20261 0.11283,0.47214 -0.32298,1.48518 -0.57131,1.32848 -1.1493,1.85317 -1.46967,1.33481 -0.0933,-0.15099 0.12642,-0.59246 0.48834,-0.98082 0.36192,-0.38835 0.80108,-0.98407 0.97617,-1.32395 0.14557,-0.28253 0.25498,-0.44768 0.32814,-0.51522 z m -29.78629,0.20723 c 0.62754,0 0.66223,0.52972 0.0501,0.76481 -0.73958,0.28405 -2.06602,1.48348 -2.06602,1.8681 h -5.2e-4 c 0,0.15247 -0.11906,0.2775 -0.26458,0.2775 -0.14553,0 -0.26458,-0.22931 -0.26458,-0.50901 0,-0.53672 1.97676,-2.4014 2.54558,-2.4014 z m 1.44332,0.0506 c 0.15643,0.0522 0.28422,0.20799 0.28422,0.34623 0,0.13825 -0.12779,0.29352 -0.28422,0.34572 -0.15644,0.0521 -0.28422,-0.10318 -0.28422,-0.34572 0,-0.24253 0.12778,-0.39833 0.28422,-0.34623 z m 8.48424,0.0527 c 0.68663,0.15005 1.28571,0.72548 1.28571,1.37356 0,0.38297 -0.11461,0.59991 -0.26665,0.50591 -0.3639,-0.2249 -1.78056,0.81966 -1.9849,1.46348 -0.2517,0.79303 -1.07547,0.63921 -1.45262,-0.2713 -0.39413,-0.95152 0.0847,-2.50699 0.69918,-2.27118 0.20059,0.077 0.35915,-0.0317 0.35915,-0.24598 0,-0.21094 0.29815,-0.45824 0.66301,-0.54984 0.22947,-0.0576 0.46824,-0.0547 0.69712,-0.005 z m 9.16326,0.0207 c 0.89631,0.22133 1.04944,0.37531 1.16117,1.17099 0.0636,0.45286 -0.0496,0.65537 -0.39687,0.70797 -0.6166,0.0934 -1.43799,0.8292 -1.64176,1.47122 -0.35014,1.1032 -1.44384,0.31991 -1.44384,-1.03404 0,-1.26611 1.30399,-2.56735 2.3213,-2.31614 z m 6.64352,0.17467 c 0.0469,0.0204 0.0371,0.13303 -0.005,0.34881 -0.0532,0.27435 -0.24598,0.54867 -0.42788,0.60927 -0.47195,0.15716 -0.40854,-0.33325 0.0971,-0.75293 0.18487,-0.15344 0.28847,-0.2256 0.33538,-0.20515 z m -40.71482,0.22996 c -0.14553,0 -0.26459,0.1855 -0.26459,0.41237 0,0.22686 0.11906,0.33898 0.26459,0.24908 0.14552,-0.0899 0.26458,-0.27595 0.26458,-0.41289 0,-0.13693 -0.11906,-0.24856 -0.26458,-0.24856 z m 18.25625,0.52968 c 0.14552,0 0.26458,0.11905 0.26458,0.26458 0,0.14552 -0.11906,0.26459 -0.26458,0.26459 -0.14552,0 -0.26459,-0.11907 -0.26459,-0.26459 0,-0.14553 0.11907,-0.26458 0.26459,-0.26458 z m 20.26646,0.33435 c 0.0453,0.0453 -0.15069,0.22752 -0.43512,0.40514 -0.28442,0.1776 -0.51676,0.21594 -0.51676,0.0847 0,-0.23754 0.79504,-0.64673 0.95188,-0.48989 z m -21.73821,0.19482 c 0.4288,0 1.20716,1.28392 1.20716,1.99161 0,0.2367 -0.34823,0.77817 -0.77359,1.20354 -0.59405,0.59404 -1.01588,0.77308 -1.81953,0.77308 -1.29339,0 -1.78107,-0.52841 -1.67483,-1.81539 0.0814,-0.98579 0.97964,-2.2542 1.4087,-1.98903 0.13155,0.0813 -0.0641,0.42926 -0.43512,0.77308 -0.37099,0.34382 -0.67438,0.8849 -0.67438,1.20251 0,0.56188 0.0143,0.55942 0.52917,-0.0951 0.29104,-0.37 0.52917,-0.789 0.52917,-0.93121 0,-0.33635 1.18849,-1.11311 1.70325,-1.11311 z m -12.55117,0.26406 c -0.0137,-0.0136 -0.12091,0.0659 -0.33073,0.23048 -0.25466,0.19972 -0.46302,0.40812 -0.46302,0.46302 0,0.21776 0.21712,0.078 0.56276,-0.36277 0.16455,-0.20982 0.24465,-0.31707 0.23099,-0.33073 z m 4.64571,5.2e-4 c 0.22687,0 0.33898,0.11905 0.24908,0.26458 -0.0899,0.14552 -0.27596,0.26459 -0.41289,0.26459 -0.13693,0 -0.24857,-0.11907 -0.24857,-0.26459 0,-0.14553 0.18551,-0.26458 0.41238,-0.26458 z m 20.63853,0.26458 c 0.59955,0 0.71637,0.54026 0.23255,1.07487 -0.55771,0.61627 -0.87501,0.64911 -1.08107,0.11214 -0.17801,-0.4639 0.33899,-1.18701 0.84852,-1.18701 z m -9.31106,0.1602 c 0.13361,0.0242 0.27983,0.10469 0.42634,0.25115 0.29134,0.29126 0.32032,0.50617 0.11317,0.83457 -0.45315,0.71836 -0.87072,0.69268 -1.06092,-0.0651 -0.16602,-0.66149 0.12061,-1.09325 0.52141,-1.02061 z m 6.2296,0.22789 c 0.0495,0.0373 -0.0286,0.26985 -0.25063,0.68472 -0.30559,0.57101 -1.84382,1.46214 -1.84382,1.06815 0,-0.13946 0.23468,-0.3279 0.52193,-0.4191 0.28724,-0.0912 0.7635,-0.47267 1.05834,-0.84749 0.28757,-0.36559 0.46465,-0.52352 0.51418,-0.48628 z m 14.61461,0.0729 c 0.11129,0.0632 0.0624,0.23849 -0.0377,0.58756 -0.21699,0.75663 -1.01529,2.39107 -1.16789,2.39107 -0.0512,0 -0.50942,0.17351 -1.01803,0.38602 -1.06514,0.44505 -1.25625,0.33979 -1.25625,-0.69091 0,-1.09842 1.23345,-2.34749 2.55695,-2.58951 0.54037,-0.0988 0.81165,-0.14749 0.92294,-0.0842 z m 1.20509,0.14469 c 0.0589,0.01 0.0775,0.0939 0.0775,0.25528 0,0.21828 -0.17859,0.54541 -0.39688,0.72657 -0.32277,0.26788 -0.39687,0.25509 -0.39687,-0.0677 0,-0.21828 0.17859,-0.54491 0.39687,-0.72606 0.16139,-0.13394 0.26049,-0.19811 0.31936,-0.1881 z m -34.72811,0.0553 c 0.53085,-0.0842 1.10092,-0.0572 1.53686,0.10853 0.91928,0.34947 0.93246,0.51935 0.0269,0.34623 -0.52144,-0.0997 -0.82125,0.0267 -1.18494,0.49971 -0.26774,0.3482 -0.48948,0.48473 -0.49248,0.30282 -0.006,-0.3565 -0.79943,-0.47237 -0.79943,-0.11679 0,0.11771 -0.17496,0.44514 -0.38861,0.72761 -0.37288,0.493 -0.38887,0.48495 -0.39687,-0.19534 -0.005,-0.38979 0.17391,-0.89118 0.39687,-1.11414 0.27918,-0.27918 0.77088,-0.47442 1.30173,-0.55863 z m 38.73407,0.13281 c 0.0728,0 -0.14708,0.29766 -0.48886,0.66146 -0.34177,0.36381 -0.68116,0.66146 -0.75396,0.66146 -0.0728,0 0.1476,-0.29765 0.48938,-0.66146 0.34177,-0.3638 0.68064,-0.66146 0.75344,-0.66146 z m -33.84909,0.41083 c 0.13784,-0.0852 0.32046,-0.0422 0.40566,0.0956 0.0852,0.13784 0.0417,0.32046 -0.0961,0.40566 -0.13784,0.0852 -0.31995,0.0417 -0.40515,-0.0961 -0.0852,-0.13784 -0.0422,-0.31994 0.0956,-0.40514 z m -0.8413,0.22428 c 0.0606,0.0605 -0.22557,0.2709 -0.63613,0.46767 -0.6352,0.30446 -0.73598,0.49555 -0.67438,1.28106 0.0887,1.13195 -0.73032,2.55315 -1.67949,2.91403 -1.39965,0.53214 -2.0208,0.16013 -2.15594,-1.28984 -0.13629,-1.46237 0.92581,-2.6878 2.37195,-2.7373 0.5457,-0.0187 0.99219,-0.11898 0.99219,-0.22273 0,-0.21157 1.61003,-0.58466 1.7818,-0.41289 z m 5.23689,0.0419 c -0.58386,0.10744 -1.46244,0.66004 -1.46244,1.04955 0,0.47598 -0.81516,0.51266 -1.32343,0.0594 -0.3155,-0.28136 -0.31873,-0.26161 -0.0207,0.13229 0.1927,0.25467 0.65198,0.46302 1.02061,0.46302 0.84731,0 2.58759,-1.28141 2.22828,-1.64072 -0.0855,-0.0856 -0.24773,-0.0994 -0.44235,-0.0636 z m 19.3952,0.0114 c 0.12128,-0.075 0.22066,0.0372 0.22066,0.24908 0,0.21188 -0.0994,0.38551 -0.22066,0.38551 -0.12129,0 -0.22014,-0.11214 -0.22014,-0.24908 0,-0.13693 0.0989,-0.31061 0.22014,-0.38551 z m -35.40972,0.10491 c -0.14553,0 -0.26459,0.1855 -0.26459,0.41237 0,0.22686 0.11906,0.33898 0.26459,0.24908 0.14552,-0.0899 0.26458,-0.27543 0.26458,-0.41237 0,-0.13693 -0.11906,-0.24908 -0.26458,-0.24908 z m 26.34154,0.52968 c 0.0642,0 0.11679,0.11905 0.11679,0.26458 0,0.14552 -0.12649,0.26459 -0.2806,0.26459 -0.15408,0 -0.20618,-0.11907 -0.11628,-0.26459 0.0899,-0.14553 0.21589,-0.26458 0.28009,-0.26458 z m -22.96811,0.41703 c 0.0463,0.0885 0.0661,0.28035 0.0661,0.58808 0,0.97725 -0.15303,1.0869 -0.40566,0.29093 -0.097,-0.30569 -0.0453,-0.68649 0.11472,-0.84646 0.10574,-0.10571 0.17851,-0.121 0.22479,-0.0326 z m -1.8929,0.29455 c 0.0461,0.0464 0.0449,0.21171 0.0212,0.5209 -0.03,0.39061 -0.20169,0.75917 -0.38137,0.81907 -0.451,0.15034 -0.41177,-0.6817 0.0543,-1.14773 0.16585,-0.16599 0.25978,-0.23867 0.30593,-0.19224 z m 41.37318,0.34675 c -0.0174,-0.0103 -0.14343,0.0895 -0.39274,0.29042 -0.28853,0.23254 -0.7175,0.49071 -0.95291,0.57361 -0.23541,0.0829 -0.48791,0.42854 -0.56121,0.76792 -0.0733,0.33937 -0.21714,0.81592 -0.31988,1.05936 -0.13932,0.33018 -0.064,0.42457 0.29663,0.37207 0.29104,-0.0424 0.64167,-0.49268 0.88056,-1.13171 0.21828,-0.58389 0.57333,-1.28756 0.7891,-1.56321 0.18644,-0.23819 0.27781,-0.35817 0.26045,-0.36846 z m -9.01444,0.26407 c 0.57421,0 0.57861,0.60372 0.009,1.21026 -0.61052,0.64957 -1.5689,0.87247 -1.5689,0.36484 0,-0.35079 1.21279,-1.5751 1.56011,-1.5751 z m -2.61844,0.13281 c 0.14552,-0.0899 0.26458,-0.0447 0.26458,0.10077 0,0.14552 -0.11906,0.33849 -0.26458,0.42839 -0.14552,0.0899 -0.26458,0.0442 -0.26458,-0.10128 0,-0.14553 0.11906,-0.33798 0.26458,-0.42788 z m -7.90339,0.39636 c 0.3997,0 0.5105,0.14743 0.447,0.59273 -0.0987,0.69161 -0.94054,0.95515 -1.16686,0.36535 -0.21415,-0.55805 0.0866,-0.95808 0.71986,-0.95808 z m 16.245,0 c 0.0762,0 -0.0471,0.35885 -0.27389,0.79736 -0.25908,0.50101 -0.90689,1.03582 -1.74304,1.43919 -2.21043,1.06635 -3.92001,2.54491 -5.17333,4.47415 -0.64884,0.99878 -1.25209,1.74359 -1.34049,1.65519 -0.0884,-0.0884 0.0369,-0.37894 0.27854,-0.64595 0.49013,-0.5416 0.57968,-1.10536 0.17518,-1.10536 -0.14552,0 -0.26458,0.11482 -0.26458,0.25528 0,0.5263 -1.75421,2.22657 -2.77606,2.69079 -0.58333,0.265 -1.20923,0.48431 -1.39113,0.48731 -0.7917,0.0139 0.0546,-2.13 1.06092,-2.68769 0.32592,-0.18062 0.92505,-0.34935 1.3317,-0.37465 0.89058,-0.0554 1.77457,-0.79419 1.77457,-1.48363 0,-1.42971 1.95718,-3.47005 3.20342,-3.33933 0.55309,0.058 0.989,-0.1584 1.69964,-0.84388 l 0.95601,-0.92191 -0.1943,0.7829 -0.19379,0.7829 1.36581,-0.98134 c 0.75136,-0.53981 1.42862,-0.98133 1.50482,-0.98133 z m -11.1094,0.0992 c 0.22404,0.003 0.43991,0.0523 0.63769,0.15813 0.70013,0.37469 0.67252,1.07794 -0.0651,1.64951 -0.32069,0.2485 -0.95733,0.75451 -1.4149,1.12448 -0.93643,0.75715 -1.17489,0.80896 -1.62884,0.35501 -1.0637,-1.0637 0.90289,-3.30948 2.47117,-3.28713 z m -20.24114,0.1018 c -0.5908,0.10981 -1.33274,0.65963 -1.33274,1.12861 0,0.72945 0.6862,0.65378 1.50585,-0.16588 0.535,-0.53499 0.60939,-0.73641 0.33435,-0.9064 -0.13018,-0.0805 -0.31053,-0.0929 -0.50746,-0.0563 z m 27.42985,0.14521 c 0.0586,0.0147 0.077,0.1074 0.077,0.28319 0,0.2361 -0.1786,0.42943 -0.39688,0.42943 -0.21828,0 -0.39687,-0.0453 -0.39687,-0.10026 0,-0.0549 0.17859,-0.24775 0.39687,-0.42891 0.16254,-0.13488 0.26129,-0.1982 0.31988,-0.18345 z m -24.26467,0.0512 c 0.14552,-0.0899 0.26458,-0.0447 0.26458,0.10077 0,0.14552 -0.11906,0.3385 -0.26458,0.42839 -0.14552,0.0899 -0.26458,0.0442 -0.26458,-0.10128 0,-0.14553 0.11906,-0.33798 0.26458,-0.42788 z m -13.9361,0.18707 c 0.0485,9.8e-4 0.11619,0.0418 0.20257,0.12815 v 5.2e-4 c 0.15912,0.15917 0.24499,0.5102 0.19069,0.78032 -0.0953,0.47323 -0.10605,0.47366 -0.28991,0.006 -0.22109,-0.5622 -0.24882,-0.91813 -0.10335,-0.91519 z m 5.22552,0.0248 c 0.29952,0.006 0.38736,0.20155 0.31006,0.69143 -0.0853,0.54018 -0.0486,0.60046 0.17363,0.28681 0.2412,-0.34036 0.28226,-0.32875 0.28526,0.0832 0.002,0.26422 -0.11912,0.71071 -0.26976,0.99218 -0.34119,0.6375 -0.58345,0.64344 -1.14049,0.0279 -0.79502,-0.87848 -0.41813,-2.10193 0.6413,-2.08153 z m 10.58282,0.21808 c 0.0111,0.0542 0.0571,0.28687 0.10232,0.51728 0.0452,0.23041 -0.0884,0.41909 -0.29663,0.41909 -0.56236,0 -0.66714,-0.33698 -0.22014,-0.70796 0.21668,-0.17982 0.40335,-0.28261 0.41445,-0.22841 z m 5.92677,0.31316 c 0.34939,-0.0111 0.68276,0.089 0.94981,0.33072 0.66136,0.5985 0.6861,1.70378 0.0382,1.70378 -0.26016,0 -0.88524,0.35224 -1.38906,0.78289 -0.50383,0.43065 -0.98144,0.78775 -1.06144,0.79375 -0.36132,0.0267 -0.78031,-0.68752 -0.78031,-1.32963 0,-1.21461 1.19457,-2.24829 2.24276,-2.28151 z m -14.67818,0.18241 c 0.30818,0 0.48678,0.11906 0.39688,0.26459 -0.0899,0.14552 -0.26853,0.26458 -0.39688,0.26458 -0.12834,0 -0.30697,-0.11906 -0.39687,-0.26458 -0.0899,-0.14553 0.0886,-0.26459 0.39687,-0.26459 z m 26.87071,0.52917 c 0.0642,0 0.11679,0.11906 0.11679,0.26458 0,0.14552 -0.12649,0.26459 -0.2806,0.26459 -0.15407,0 -0.20617,-0.11907 -0.11627,-0.26459 0.0899,-0.14552 0.21588,-0.26458 0.28008,-0.26458 z m -28.50937,0.38964 c -0.0815,-0.0815 -0.22926,0.0657 -0.32866,0.3266 -0.14359,0.37709 -0.11351,0.40716 0.1478,0.14779 0.18082,-0.17947 0.26236,-0.39289 0.18086,-0.47439 z m -5.09271,0.13953 c 0.22687,0 0.33898,0.11906 0.24908,0.26458 -0.0899,0.14552 -0.27596,0.26458 -0.41289,0.26458 -0.13693,0 -0.24857,-0.11906 -0.24857,-0.26458 0,-0.14552 0.18551,-0.26458 0.41238,-0.26458 z m 33.34577,0.59738 c 0.0666,0.0666 -0.0603,0.27171 -0.28215,0.45578 -0.25146,0.20867 -0.40308,0.22867 -0.40308,0.0532 0,-0.31976 0.50175,-0.6925 0.68523,-0.50901 z m -7.80108,0.19637 c 0.12995,0 0.23668,0.17859 0.23668,0.39687 0,0.21828 -0.17488,0.39688 -0.3886,0.39688 -0.23669,0 -0.32948,-0.15513 -0.23668,-0.39688 0.0838,-0.21828 0.25865,-0.39687 0.3886,-0.39687 z m -26.11778,0.26458 c 0.0572,0 0.17251,0.17859 0.25631,0.39687 0.0838,0.21829 0.0371,0.39688 -0.10387,0.39688 -0.14096,0 -0.25631,-0.17859 -0.25631,-0.39688 0,-0.21828 0.0467,-0.39687 0.10387,-0.39687 z m 6.49469,0 c 0.15411,0 0.28061,0.11906 0.28061,0.26458 0,0.14552 -0.0526,0.26459 -0.11679,0.26459 -0.0642,0 -0.19019,-0.11907 -0.28009,-0.26459 -0.0899,-0.14552 -0.0378,-0.26458 0.11627,-0.26458 z m 34.72708,0.004 c 0.013,0.0294 -0.0401,0.0935 -0.18293,0.19844 -0.14552,0.10691 -0.39672,0.43243 -0.55811,0.72347 -0.16138,0.29104 -0.4548,0.52917 -0.65164,0.52917 -0.3766,0 -0.64255,0.44394 -1.62522,2.71198 -0.58291,1.34537 -1.00149,1.77343 -1.00149,1.02422 0,-0.20046 0.17687,-0.51132 0.39326,-0.69091 0.21639,-0.17958 0.65459,-1.04233 0.97358,-1.9172 0.41923,-1.14979 0.80484,-1.72802 1.39216,-2.08617 0.58781,-0.35845 1.22149,-0.58108 1.26039,-0.493 z m -26.16119,0.26045 c 0.6879,0 1.80179,1.08803 1.71669,1.6769 -0.0626,0.43313 -0.28443,0.56765 -0.99425,0.60255 -0.57009,0.0281 -1.08377,0.25487 -1.3653,0.60255 -0.94337,1.16501 -2.02861,0.1708 -1.49241,-1.36736 0.24949,-0.71569 1.37592,-1.51464 2.13527,-1.51464 z m -10.93112,0.26459 c 0.14552,0 0.26459,0.11906 0.26459,0.26458 0,0.14552 -0.11907,0.26458 -0.26459,0.26458 -0.14552,0 -0.26458,-0.11906 -0.26458,-0.26458 0,-0.14552 0.11906,-0.26458 0.26458,-0.26458 z m -2.30373,0.0749 c 0.059,-0.008 0.15842,0.0561 0.31936,0.18965 0.21828,0.18116 0.39687,0.43351 0.39687,0.56121 0,0.27398 -0.36626,0.30708 -0.61753,0.0558 -0.097,-0.097 -0.17622,-0.34937 -0.17622,-0.56121 0,-0.15619 0.0185,-0.23717 0.0775,-0.24546 z m 21.24108,0.29455 c 0.0706,-0.0108 0.11265,0.0213 0.11265,0.0987 0,0.14777 -0.17859,0.33736 -0.39687,0.42116 -0.21828,0.0838 -0.39688,0.11086 -0.39688,0.0605 0,-0.0504 0.1786,-0.23949 0.39688,-0.42065 0.11437,-0.0949 0.21359,-0.14888 0.28422,-0.15968 z m 9.66969,0.15968 c 0.27322,0 0.49713,0.0646 0.49713,0.14366 0,0.0791 -0.29253,0.45929 -0.65009,0.84491 -0.57029,0.61503 -0.67176,0.64562 -0.82372,0.2496 -0.21602,-0.56294 0.31671,-1.23817 0.97668,-1.23817 z m -6.08025,0.0444 c 0.85737,0.1219 0.91363,0.84032 0.0997,1.2759 -0.493,0.26384 -0.58532,0.42045 -0.34055,0.57877 0.26395,0.17072 0.25101,0.27321 -0.061,0.47801 -0.45961,0.30167 -1.15628,0.34698 -1.41128,0.092 -0.72147,-0.72147 0.59428,-2.58373 1.71307,-2.42466 z m 2.01332,0.0656 c 0.0898,0.0898 0.0354,0.29072 -0.12041,0.44649 -0.19002,0.19005 -0.33789,0.19467 -0.44958,0.014 -0.1879,-0.30403 0.31785,-0.71258 0.56999,-0.46044 z m 8.99325,0.26355 c 0.0316,0.0584 0.008,0.21111 -0.0656,0.45269 -0.28268,0.93107 -1.16756,2.3483 -2.18333,3.49643 -0.49424,0.55864 -0.82161,1.09249 -0.72761,1.18649 0.094,0.094 0.39808,-0.12516 0.67593,-0.48679 0.60349,-0.78545 0.6961,-0.36891 0.10542,0.47439 -0.22653,0.32342 -0.63756,0.58807 -0.91312,0.58807 -0.27556,0 -0.59625,0.16417 -0.71262,0.36484 -0.11637,0.20067 -0.62807,0.6169 -1.1374,0.92501 -0.9968,0.603 -1.14989,0.64741 -1.39319,0.40411 -0.42804,-0.42804 0.54172,-1.73845 1.9482,-2.6324 0.52377,-0.33291 1.62811,-1.50252 2.45359,-2.59933 1.26052,-1.67483 1.85495,-2.34884 1.94976,-2.17351 z m -30.54956,0.15555 c 0.99078,0 1.7787,0.72459 1.7787,1.63608 0,0.80371 -0.012,0.81056 -1.08985,0.6382 -0.91244,-0.14591 -1.06445,-0.10814 -0.93431,0.23099 0.0855,0.22276 0.0402,0.40515 -0.10077,0.40515 -0.39913,0 -1.31465,-1.01339 -1.31465,-1.45521 0,-0.59779 0.97858,-1.45521 1.66088,-1.45521 z m 22.31595,1.05833 c 0.4489,0 0.47587,0.57627 0.047,1.00511 -0.39042,0.39038 -0.65658,0.40293 -0.88005,0.0413 -0.21342,-0.34533 0.34468,-1.04645 0.83302,-1.04645 z m 1.42317,0.39688 c 0.14552,0.0899 0.26458,0.21588 0.26458,0.28008 0,0.0642 -0.11906,0.11679 -0.26458,0.11679 -0.14552,0 -0.26458,-0.12597 -0.26458,-0.28008 0,-0.15407 0.11906,-0.20669 0.26458,-0.11679 z m -28.19415,0.0744 c 0.0981,0.0439 0.21435,0.14782 0.33849,0.32505 0.2726,0.38918 0.31372,0.65728 0.12919,0.84181 -0.18453,0.18454 -0.36664,0.0913 -0.57206,-0.29249 -0.31959,-0.59717 -0.18986,-1.0062 0.10438,-0.87437 z m 36.47013,0.15813 c 0.0278,-0.0278 0.0642,0.009 0.10645,0.11472 0.0764,0.191 0.0672,0.41905 -0.0207,0.50695 -0.0879,0.0879 -0.15051,-0.0684 -0.13901,-0.34727 0.006,-0.15411 0.0254,-0.24658 0.0532,-0.2744 z m -15.21251,0.70539 c 0.19238,0 0.29375,0.0843 0.18965,0.25269 -0.0899,0.14552 -0.42479,0.26245 -0.74362,0.26045 -0.47129,-0.003 -0.50507,-0.0519 -0.18242,-0.26045 0.26063,-0.16843 0.54401,-0.25269 0.73639,-0.25269 z m 4.3062,0.51728 c 0.15408,0 0.20669,0.11906 0.11679,0.26458 -0.0899,0.14552 -0.21641,0.26458 -0.28061,0.26458 -0.0642,0 -0.11627,-0.11906 -0.11627,-0.26458 0,-0.14552 0.12598,-0.26458 0.28009,-0.26458 z m -8.02587,0.0279 c 0.93754,-0.13039 1.99067,0.4458 1.41284,1.14205 -0.47576,0.57321 -1.70519,0.92735 -2.22002,0.63924 -0.55577,-0.31102 -0.56656,-0.85454 -0.0274,-1.39371 0.22216,-0.22217 0.52206,-0.34411 0.83457,-0.38758 z m -8.27081,0.50126 c 0.30863,0 1.99368,0.91195 1.99368,1.07901 0,0.39572 -0.71345,0.43305 -1.39992,0.0734 -0.59315,-0.31078 -1.0268,-1.15239 -0.59376,-1.15239 z m 4.65501,0 c 0.15408,0 0.20669,0.11906 0.11679,0.26459 -0.0899,0.14552 -0.2164,0.26458 -0.2806,0.26458 -0.0642,0 -0.11627,-0.11906 -0.11627,-0.26458 0,-0.14553 0.12598,-0.26459 0.28008,-0.26459 z m 9.26662,0.36587 c 0.24475,-0.0167 0.4588,0.0325 0.7028,0.14366 0.85444,0.38931 0.6727,1.0922 -0.37517,1.45108 -1.21655,0.41667 -1.43865,0.77785 -0.34933,0.56792 l 0.92604,-0.17828 -0.66146,0.53847 c -0.7808,0.63571 -2.58635,0.74973 -2.80603,0.17725 -0.25583,-0.66668 0.67916,-2.03082 1.67742,-2.44792 0.36578,-0.15283 0.64098,-0.23546 0.88573,-0.25218 z m -23.68072,0.17519 c 0.0862,-0.0279 0.32111,0.0454 0.63251,0.24236 0.21407,0.13538 0.33287,0.30223 0.26407,0.37103 -0.0688,0.0688 -0.35595,-0.0437 -0.6382,-0.25011 -0.28224,-0.20637 -0.3446,-0.3354 -0.25838,-0.36328 z m 35.22834,0.11988 0.0362,0.60565 c 0.0224,0.37583 -0.36322,1.02825 -1.01596,1.71979 -0.57845,0.61283 -1.05433,1.02092 -1.05833,0.90693 -0.004,-0.11399 0.40127,-0.61523 0.89968,-1.11363 0.49841,-0.49841 0.95826,-1.17908 1.02216,-1.51257 z m -8.87078,0.3974 c 0.63305,0 0.60905,0.70399 -0.0357,1.04903 -0.69088,0.36972 -1.07538,0.34447 -1.07538,-0.0703 0,-0.49081 0.55389,-0.97875 1.11104,-0.97875 z m -19.16369,0.29817 c 0.86656,-0.0901 1.97834,0.56375 1.8619,1.38079 -0.0557,0.39059 -0.28914,0.58697 -0.74259,0.62477 -1.43607,0.11989 -2.51687,-0.84176 -1.8495,-1.64589 0.1799,-0.21677 0.44134,-0.32965 0.73019,-0.35967 z m -3.5109,0.49506 c 0.23549,0 0.35449,0.11906 0.26459,0.26458 -0.0899,0.14552 -0.20899,0.26459 -0.26459,0.26459 -0.0556,0 -0.17468,-0.11907 -0.26458,-0.26459 -0.0899,-0.14552 0.0291,-0.26458 0.26458,-0.26458 z m 16.43518,0 c 0.21825,0 0.32347,0.11906 0.23357,0.26458 -0.0899,0.14552 -0.3424,0.26459 -0.56068,0.26459 -0.21826,0 -0.32297,-0.11907 -0.23307,-0.26459 0.0899,-0.14552 0.3419,-0.26458 0.56018,-0.26458 z m 7.63157,0.52658 c 0.57627,-0.0104 1.04332,0.0217 1.12241,0.10077 0.23492,0.23492 -0.28415,0.92466 -0.79995,1.06299 -0.93604,0.25105 -3.04548,0.18364 -3.22254,-0.10284 -0.27339,-0.44236 0.0777,-0.72643 1.1219,-0.90796 0.51649,-0.0898 1.20192,-0.14261 1.77818,-0.15296 z m -12.84779,0.0512 c 0.74815,0.15875 1.34875,0.64439 1.34875,1.36116 0,0.34168 -0.24806,0.44235 -1.09089,0.44235 -0.93954,0 -1.04491,0.055 -0.76119,0.39687 0.28185,0.33963 0.20027,0.39561 -0.56327,0.38861 -1.80834,-0.0163 -2.30173,-0.85518 -1.16892,-1.98799 0.5913,-0.5913 1.48737,-0.75975 2.23552,-0.601 z m 20.51037,0.21601 c -0.10569,0.21828 -0.37144,0.60524 -0.59014,0.8599 -0.2187,0.25466 -0.52101,0.46302 -0.67179,0.46302 -0.15078,0 -0.075,-0.14883 0.16794,-0.33073 0.24294,-0.1819 0.6313,-0.56886 0.86352,-0.8599 0.23207,-0.29104 0.33616,-0.35058 0.23047,-0.13229 z m -16.39589,0.5395 c 0.34808,-0.0215 0.68265,0.0544 0.79788,0.24081 0.0854,0.13822 -0.0782,0.37635 -0.3638,0.52917 -0.97433,0.52144 -1.86062,0.23442 -1.3131,-0.4253 0.16934,-0.20405 0.53094,-0.32314 0.87902,-0.34468 z m 12.77183,0.14986 c 0.0887,0.0282 -0.0128,0.26717 -0.22893,0.74156 -0.30647,0.67262 -2.21584,1.7474 -3.24166,1.8247 -0.30597,0.023 -0.81436,0.34197 -1.12965,0.70848 -0.48716,0.56628 -0.80493,0.66838 -2.11718,0.68058 -0.9167,0.009 -1.8884,0.1967 -2.39107,0.46302 -0.46572,0.24675 -1.02435,0.44855 -1.24127,0.44855 -0.63638,0 -0.7839,-0.53462 -0.25425,-0.92191 0.68788,-0.50299 0.27135,-0.78879 -0.47904,-0.32866 -0.34005,0.20852 -1.30814,0.53591 -2.15129,0.7276 -1.37138,0.31178 -1.57974,0.3018 -1.97507,-0.0935 -0.41285,-0.41283 -0.40373,-0.44183 0.13384,-0.44183 0.31649,0 0.72858,-0.18729 0.91622,-0.416 1.04757,-1.27687 1.3039,-1.43609 2.30994,-1.43609 0.5735,0 1.11763,0.12109 1.20923,0.26924 0.10312,0.16684 0.44279,0.0728 0.89193,-0.24702 0.88598,-0.63091 2.14819,-0.98308 2.14819,-0.59944 0,0.15075 -0.38695,0.57915 -0.85989,0.95188 l -0.8599,0.67799 0.67541,0.003 c 0.42561,0.002 1.00326,-0.33497 1.56063,-0.91003 0.59927,-0.61829 1.27686,-0.99614 2.0991,-1.1715 1.43349,-0.30574 1.60329,-0.21794 0.95756,0.49558 -0.60018,0.66322 -0.21339,0.68216 0.63355,0.031 0.34921,-0.26849 0.82851,-0.43759 1.06506,-0.37569 0.23654,0.0619 0.87338,-0.18872 1.41541,-0.55655 0.54511,-0.36992 0.82442,-0.55269 0.91313,-0.52452 z m -27.55646,0.38964 c 0.30205,-0.0115 0.82921,0.27699 1.17099,0.64079 0.73282,0.78006 0.59337,0.86152 -0.29508,0.17208 -0.34705,-0.26931 -0.80956,-0.55778 -1.02784,-0.64078 -0.2803,-0.1066 -0.23594,-0.15739 0.15193,-0.17209 z m 28.86387,0.70074 c 0.11834,-0.0428 0.0207,0.19376 -0.32505,0.7214 -0.25051,0.38233 -0.70655,0.82908 -1.01337,0.99219 -0.3907,0.2077 -0.28013,-0.0201 0.36845,-0.75913 0.51749,-0.58968 0.85163,-0.91172 0.96997,-0.95446 z m -16.03571,0.0723 c 0.15407,0 0.20668,0.11907 0.11678,0.26459 -0.0899,0.14552 -0.2164,0.26458 -0.2806,0.26458 -0.0642,0 -0.11627,-0.11906 -0.11627,-0.26458 0,-0.14552 0.12598,-0.26459 0.28009,-0.26459 z m -6.94428,0.0837 c 0.19099,-0.0764 0.41904,-0.0667 0.50694,0.0212 0.0879,0.088 -0.0684,0.15051 -0.34726,0.13901 -0.30823,-0.0127 -0.37075,-0.0757 -0.15968,-0.1602 z m -5.10822,0.50074 c 0.16022,0.10327 0.58248,0.30433 0.93845,0.44649 0.40917,0.16342 0.48762,0.26483 0.21342,0.27543 -0.23854,0.009 -0.6608,-0.19181 -0.93844,-0.44648 -0.2776,-0.25465 -0.37364,-0.37871 -0.21343,-0.27544 z m 3.56361,0.12248 c 0.1581,0.0579 0.6023,0.33093 1.3131,0.81183 0.73656,0.4983 1.11988,0.58409 2.01331,0.45011 0.839,-0.12582 1.36573,-0.0318 2.19883,0.39325 1.28296,0.65449 1.50705,1.29142 0.23616,0.67128 l -0.85989,-0.4191 0.66146,0.53899 c 0.84878,0.69188 0.6751,0.67298 -0.77463,-0.0853 -0.64412,-0.33689 -1.37425,-0.55954 -1.62264,-0.49454 -0.5362,0.14022 -1.6627,-0.42605 -2.76211,-1.38803 -0.43351,-0.37932 -0.5617,-0.53644 -0.40359,-0.47852 z m 17.7338,0.2191 c -0.14552,0.0899 -0.26458,0.28287 -0.26458,0.4284 0,0.14556 0.11906,0.19067 0.26458,0.10077 0.14552,-0.0899 0.26458,-0.28236 0.26458,-0.42788 0,-0.14556 -0.11906,-0.19119 -0.26458,-0.10129 z m -9.65729,0.39688 c 0.21828,0 0.39687,0.11906 0.39687,0.26458 0,0.14552 -0.17859,0.26459 -0.39687,0.26459 -0.21828,0 -0.39688,-0.11907 -0.39688,-0.26459 0,-0.14552 0.1786,-0.26458 0.39688,-0.26458 z m 12.83229,1.09192 c 0.63736,0.0116 0.63395,0.0204 -0.0946,0.23875 -0.41581,0.1246 -0.9516,0.39386 -1.19062,0.59841 -0.23903,0.20455 -0.6132,0.46521 -0.83148,0.57929 -0.21828,0.11408 0.0198,-0.16097 0.52917,-0.61081 0.52661,-0.4651 1.21135,-0.81264 1.5875,-0.80564 z m 1.45056,0.58136 c -0.063,-0.0144 -0.23468,0.0116 -0.52452,0.0765 -0.43656,0.0976 -0.84374,0.22056 -0.90434,0.27286 -0.26551,0.22897 0.94393,0.0599 1.30122,-0.18191 0.14492,-0.0981 0.19063,-0.15298 0.12764,-0.16743 z m -1.97973,0.44339 c 0.0137,0.0136 -0.0664,0.12091 -0.23099,0.33073 -0.34565,0.44073 -0.56276,0.58104 -0.56276,0.36328 0,-0.0549 0.20836,-0.2633 0.46302,-0.46302 0.20983,-0.16455 0.31708,-0.24465 0.33073,-0.23099 z m -14.25908,0.80925 c -0.0223,0.005 -0.008,0.0875 0.0331,0.24908 0.0561,0.21828 0.51168,0.60495 1.01234,0.85938 0.50066,0.25444 1.32726,0.44891 1.83658,0.43201 0.84668,-0.0281 0.81972,-0.0486 -0.31006,-0.23926 -0.67962,-0.11468 -1.45353,-0.34054 -1.71979,-0.50178 -0.40375,-0.2445 -0.35193,-0.26806 0.31006,-0.14211 l 0.79375,0.15142 -0.66146,-0.39326 c -0.41855,-0.24866 -0.69754,-0.29166 -0.75964,-0.11731 -0.059,0.16566 -0.19898,0.13154 -0.35089,-0.0853 -0.10287,-0.14683 -0.16163,-0.21828 -0.18397,-0.21291 z m 4.15531,0.59841 c -0.21107,0.0845 -0.14855,0.14698 0.15968,0.15968 0.27896,0.0115 0.43516,-0.0511 0.34726,-0.13901 -0.0879,-0.0879 -0.31595,-0.0971 -0.50694,-0.0207 z m 1.07435,0.32246 c -0.067,-0.0669 -0.40792,-0.0464 -0.75758,0.045 -0.59135,0.15464 -0.59997,0.17996 -0.12092,0.36742 0.73959,0.28947 1.11232,0.27454 0.64751,-0.0258 -0.32684,-0.21113 -0.33085,-0.25745 -0.0222,-0.26045 0.20613,-0.002 0.32021,-0.0591 0.25321,-0.12609 z m 0.76119,0.72967 c -0.32742,0.0631 -0.0595,0.11473 0.59532,0.11473 0.65481,0 0.92273,-0.0516 0.59531,-0.11473 -0.32742,-0.0631 -0.8632,-0.0631 -1.19063,0 z" />
    <path
       id="path8"
       style="fill:#07142f"
       d="m 346.5923,235.25749 c -0.30396,0.0503 -0.59942,0.25621 -1.06505,0.64802 -0.64964,0.54664 -0.75758,0.76817 -0.51677,1.05833 0.45087,0.54325 1.92067,0.44514 2.71715,-0.18138 0.87008,-0.68437 0.86787,-0.8252 -0.0191,-1.23713 -0.49994,-0.23218 -0.81225,-0.33809 -1.11621,-0.28784 z m 4.94337,0.49609 c -0.13052,0.0341 -0.24273,0.10899 -0.31781,0.23048 -0.24559,0.39738 0.15407,1.1124 0.74982,1.34152 0.78291,0.3011 1.11125,-0.1034 0.74208,-0.91364 -0.22491,-0.49361 -0.78255,-0.76059 -1.17409,-0.65836 z m -12.19667,1.01699 c -0.17285,0.0447 -0.4055,0.15566 -0.68833,0.34727 -0.49538,0.3356 -0.94955,0.75913 -1.00925,0.94103 -0.17778,0.54146 0.6471,0.37584 1.41387,-0.28371 0.78614,-0.6762 0.80223,-1.13877 0.28371,-1.00459 z m -6.25957,0.56069 c -0.14552,0 -0.26297,0.2679 -0.26097,0.59532 0.003,0.48139 0.0536,0.51936 0.26097,0.19843 0.3315,-0.51296 0.3315,-0.79375 0,-0.79375 z m 23.04769,1.11828 c -0.59947,0.11953 -0.40599,1.27231 0.31729,1.88877 0.53255,0.45388 0.58691,0.45782 0.66921,0.0455 0.14726,-0.73753 -0.51128,-2.02905 -0.9865,-1.93425 z m 1.89136,0.24546 c -0.0425,-0.009 -0.057,0.0735 -0.0605,0.24547 -0.004,0.23041 0.0715,0.49831 0.16847,0.59531 0.3228,0.32279 0.40531,-0.0413 0.12041,-0.53123 -0.11532,-0.19826 -0.18591,-0.30013 -0.22841,-0.30955 z m -16.16698,0.81029 c -0.49643,-0.16548 -1.03467,0.121 -1.35599,0.7214 -0.23509,0.43926 -0.21268,0.54416 0.11524,0.54416 0.56092,0 1.66348,-1.12465 1.24075,-1.26556 z m 8.94571,0.20722 c -0.64922,0 -0.71618,1.08888 -0.10439,1.70067 0.58313,0.58313 1.17203,0.51748 1.17203,-0.13074 0,-0.84459 -0.49333,-1.56993 -1.06764,-1.56993 z m -14.94534,0.9679 c -0.25621,-0.0244 -0.81073,0.38249 -1.14825,0.92294 -0.23305,0.37296 -0.23139,0.49041 0.006,0.49041 0.44219,0 1.28003,-0.80772 1.28003,-1.23403 0,-0.11507 -0.0526,-0.17118 -0.13798,-0.17932 z m 9.74307,0.62012 c -0.39754,0.0549 -0.91846,0.28387 -1.28312,0.64854 -0.81284,0.81283 -0.83929,1.83388 -0.0615,2.37867 0.75771,0.53068 0.92399,0.51838 1.24954,-0.0899 0.14757,-0.27573 0.62801,-0.62655 1.06764,-0.7798 1.056,-0.36813 1.13599,-1.36426 0.10955,-1.36426 -0.50437,0 -0.64881,-0.10664 -0.53744,-0.39687 0.12735,-0.33187 -0.14712,-0.4513 -0.54467,-0.39636 z m 12.53309,0.53588 c -0.0635,0.0685 -0.0565,0.51202 0.0155,0.98496 0.14816,0.97281 0.60235,1.17437 0.59635,0.26458 -0.004,-0.62517 -0.41444,-1.46288 -0.61185,-1.24954 z m -2.65307,0.60824 c -0.97636,0.0995 -1.38241,1.87682 -0.42581,2.83342 0.68822,0.68822 1.04903,0.45987 1.04903,-0.66456 0,-0.48861 0.12572,-0.93004 0.27957,-0.98134 0.37224,-0.12408 0.0479,-0.92864 -0.45165,-1.12034 -0.16046,-0.0616 -0.31166,-0.0814 -0.45114,-0.0672 z m -16.54421,1.80764 c -0.19717,0.006 -0.55466,0.19079 -1.19579,0.55759 -1.19863,0.68573 -1.63278,1.26839 -1.39888,1.87792 0.0914,0.23806 0.36049,0.43305 0.59789,0.43305 0.62135,0 2.23088,-1.69902 2.23088,-2.3549 0,-0.34707 -0.0369,-0.51973 -0.2341,-0.51366 z m -6.18412,0.32194 c -0.0496,-0.0438 -0.1838,0.0169 -0.43615,0.15193 -0.30482,0.16313 -0.55397,0.53057 -0.55397,0.81649 0,0.28592 -0.17859,0.51986 -0.39687,0.51986 -0.21828,0 -0.39688,0.10788 -0.39688,0.23978 0,0.31085 0.96866,0.0576 1.28158,-0.33486 0.13248,-0.16618 0.32612,-0.57993 0.43046,-0.91984 0.0864,-0.28141 0.12146,-0.42959 0.0718,-0.47336 z m -4.06745,0.16537 c -0.14235,0 -0.66899,0.43153 -1.17047,0.95911 -0.55034,0.57896 -0.7018,0.85081 -0.38241,0.68575 0.67211,-0.34735 1.89701,-1.64486 1.55288,-1.64486 z m 29.90567,0.59944 c -0.0874,0.0873 -0.0654,0.30962 0.0486,0.49403 0.1667,0.26965 0.22924,0.26989 0.31884,0.001 0.12789,-0.38368 -0.13063,-0.73186 -0.36742,-0.49506 z m -7.93802,0.48886 c -0.29444,-0.003 -0.56349,0.16404 -0.89865,0.4992 -0.59252,0.59251 -0.71495,2.08952 -0.21187,2.5926 0.55595,0.55594 0.97956,0.34688 1.54564,-0.76274 0.36563,-0.71668 0.67942,-1.03111 0.93172,-0.93431 0.62254,0.23889 0.43243,-0.28711 -0.31677,-0.87643 -0.43574,-0.34276 -0.75562,-0.51542 -1.05007,-0.51832 z m 8.37779,0.88574 c -0.12387,0.0766 -0.10404,0.61648 0.0439,1.19941 0.29607,1.16642 0.60585,1.35078 0.87023,0.51779 0.18744,-0.59057 -0.53654,-1.95057 -0.91415,-1.7172 z m -4.03593,1.28984 c -0.0831,-0.0154 -0.18982,0.0459 -0.34934,0.17828 -0.21656,0.17973 -0.39325,0.54999 -0.39325,0.82321 0,0.27322 0.10432,0.49713 0.23202,0.49713 0.42531,0 0.88766,-0.78103 0.72037,-1.21698 -0.0669,-0.17423 -0.12671,-0.26628 -0.2098,-0.28164 z m -11.69541,0.48524 c -0.47361,-0.054 -1.05024,0.12273 -1.51051,0.46302 -0.40949,0.30275 -0.86868,0.55036 -1.02009,0.55036 -0.38026,0 -0.34701,1.40945 0.0424,1.79885 0.45869,0.45868 0.6085,0.409 1.52238,-0.50488 0.56427,-0.56426 0.9908,-0.77832 1.35858,-0.68212 0.4659,0.12185 0.52545,0.0307 0.45475,-0.69867 -0.0684,-0.70579 -0.2031,-0.85296 -0.84749,-0.92656 z m 14.44563,0.82476 c -0.26101,-0.028 -0.56856,0.0753 -0.75345,0.32814 -0.44094,0.60303 -0.47003,2.28847 -0.047,2.71147 0.57136,0.57136 0.95646,-0.11636 0.80718,-1.44074 -0.0994,-0.88206 -0.0531,-1.17269 0.16537,-1.03767 0.16691,0.10315 0.30386,0.0579 0.30386,-0.10077 0,-0.2727 -0.21494,-0.43239 -0.47594,-0.46043 z m 2.85719,0.32091 c -0.15893,-0.0982 -0.26297,0.23903 -0.26097,0.84439 0.003,0.74812 0.0706,0.90543 0.26097,0.61082 0.33439,-0.51744 0.33439,-1.24854 0,-1.45521 z m -32.37581,0.13229 c -0.73906,0 -2.02003,0.93491 -2.02003,1.47433 h -5.1e-4 c 0,0.56255 1.14392,0.46251 1.94871,-0.17053 0.87243,-0.68623 0.90666,-1.3038 0.0718,-1.3038 z m 19.3058,0.93224 c -0.15167,-0.006 -0.30663,0.0695 -0.5395,0.22325 -0.65107,0.42996 -0.86722,1.47214 -0.37052,1.78697 0.51254,0.32488 0.75034,0.28283 0.75034,-0.1323 0,-0.20053 0.2679,-0.55441 0.59532,-0.78651 0.58491,-0.4146 0.58685,-0.42901 0.0832,-0.82527 -0.21877,-0.17214 -0.36715,-0.25998 -0.51883,-0.26614 z m -13.36869,0.0424 c -0.66303,-0.0536 -1.39959,0.17578 -1.84898,0.71727 -0.32223,0.3883 -0.27154,0.39096 0.59738,0.0279 1.36093,-0.56864 1.48792,-0.48867 0.48214,0.30386 -1.01125,0.79688 -1.42934,1.6588 -1.03973,2.14302 0.35823,0.44459 0.73122,0.41898 0.73122,-0.0506 0,-0.50464 1.02473,-1.20561 1.76268,-1.20561 0.70513,0 0.90313,-0.26204 0.72192,-0.95498 -0.15437,-0.59032 -0.7436,-0.9272 -1.40663,-0.98082 z m 17.33434,0.68109 c -0.18349,-0.18349 -0.68523,0.18926 -0.68523,0.50902 0,0.17546 0.15163,0.15494 0.40308,-0.0538 0.22179,-0.18407 0.34875,-0.38867 0.28215,-0.45527 z m 8.57467,0.38706 c -0.0967,0.0847 -0.21823,0.26196 -0.35398,0.52348 -0.24174,0.46572 -0.43925,0.91219 -0.43925,0.99219 0,0.08 0.0987,0.14573 0.21962,0.14573 0.33212,0 0.91705,-1.22098 0.7798,-1.62781 -0.0372,-0.11021 -0.10944,-0.11825 -0.20619,-0.0336 z m -38.44313,0.13849 c -0.084,0.0203 -0.25314,0.16478 -0.55397,0.44442 -0.37954,0.35279 -0.68988,0.75402 -0.68988,0.89193 0,0.439 1.18639,-0.51751 1.28519,-1.03611 0.0413,-0.21691 0.0426,-0.32053 -0.0413,-0.30024 z m 32.07401,0.57258 c -1.30938,-0.25879 -2.75323,2.1462 -1.58595,3.31349 0.54983,0.54981 1.07642,0.53752 1.07642,-0.0253 0,-0.15221 0.34697,-0.79121 0.77102,-1.41955 0.74494,-1.10379 0.75416,-1.15713 0.28318,-1.58337 -0.17356,-0.15707 -0.35761,-0.24828 -0.54467,-0.28525 z m 7.92975,0.38447 -0.54105,0.68781 c -0.43991,0.55926 -0.48,0.76193 -0.21342,1.08314 0.40332,0.48597 0.40648,0.48193 0.59841,-0.76068 z m -21.12946,0.39687 c -0.14901,0.0154 -0.30806,0.089 -0.4563,0.2372 -0.23091,0.23087 -0.34803,0.6076 -0.25993,0.83716 0.21933,0.57156 0.89461,0.52487 1.22059,-0.0842 0.29911,-0.55888 -0.0573,-1.03633 -0.50436,-0.99013 z m -14.9965,0.76378 c -0.34102,-0.0379 -0.76936,0.1132 -1.1746,0.46561 -0.58516,0.50884 -0.59032,0.53251 -0.062,0.27698 0.31785,-0.15373 0.76434,-0.27957 0.99219,-0.27957 0.72369,0 0.44728,0.41126 -0.50901,0.75706 -1.0595,0.38312 -1.72238,0.96468 -1.72238,1.51102 0,0.23066 0.26801,0.37776 0.68782,0.37776 0.9344,0 2.55627,-1.62187 2.44016,-2.44016 -0.0573,-0.40385 -0.31114,-0.63077 -0.65216,-0.6687 z m 3.66231,0.19896 c -0.39499,0 -0.80618,0.59171 -0.66559,0.95808 0.24043,0.62654 0.87746,0.41127 0.87746,-0.29663 0,-0.36381 -0.0955,-0.66145 -0.21187,-0.66145 z m 15.56081,0.0408 c -0.13059,0.005 -0.27175,0.12002 -0.524,0.3483 -0.61477,0.55636 -0.67586,0.95402 -0.21653,1.41335 0.25176,0.25176 0.46436,0.17798 0.98444,-0.3421 0.62273,-0.62273 0.6362,-0.69084 0.21652,-1.11052 -0.20984,-0.20984 -0.32984,-0.31424 -0.46043,-0.30903 z m 5.23637,0.0832 c -0.0701,-0.0701 -0.34403,0.11115 -0.60823,0.40308 -0.26416,0.29194 -0.35697,0.53123 -0.20671,0.53123 0.33291,0 0.99272,-0.75652 0.81494,-0.93431 z m 9.17515,0.14004 c -0.40065,0 -1.71324,1.48047 -1.71824,1.93839 -0.002,0.17074 -0.0755,0.57846 -0.1633,0.90588 -0.26078,0.97311 0.3424,0.68784 1.20923,-0.57205 0.4418,-0.64213 0.93064,-1.21004 1.08624,-1.26194 0.38211,-0.12736 0.0203,-1.01028 -0.41393,-1.01028 z m -2.51561,0.26459 c -0.35849,0 -1.10234,1.55602 -0.9002,1.88309 0.2267,0.36682 0.50385,0.0361 0.85731,-1.0232 0.16482,-0.49395 0.18306,-0.85989 0.0429,-0.85989 z m -22.05085,1.32291 c -0.49155,0 -0.78815,0.4313 -0.55552,0.80771 0.23933,0.38723 0.76769,0.16501 0.87075,-0.36639 0.0495,-0.25521 -0.0834,-0.44132 -0.31523,-0.44132 z m 24.75611,0.32246 c -0.0731,0.0675 -0.1826,0.23218 -0.32814,0.5147 -0.17509,0.33988 -0.61425,0.93612 -0.97617,1.32447 -0.36192,0.38836 -0.58164,0.82931 -0.48834,0.9803 0.32037,0.51836 0.89836,-0.006 1.46967,-1.33429 0.4357,-1.01304 0.54241,-1.68779 0.32298,-1.48518 z m -40.74376,0.10801 c -0.40652,-0.25124 -1.91103,0.95031 -2.06293,1.64744 -0.0839,0.38528 -0.19824,0.84905 -0.25424,1.03095 -0.18286,0.59356 1.2004,0.35867 1.87792,-0.31885 0.6321,-0.6321 0.90057,-2.07443 0.43925,-2.35954 z m 20.88503,0.20205 c -0.22888,-0.05 -0.46765,-0.0524 -0.69712,0.005 -0.36486,0.0916 -0.66301,0.3389 -0.66301,0.54984 0,0.21425 -0.15856,0.32246 -0.35915,0.24546 -0.61447,-0.23581 -1.09331,1.31966 -0.69918,2.27118 0.37715,0.91051 1.20092,1.06485 1.45262,0.27182 0.20434,-0.64382 1.621,-1.68838 1.9849,-1.46348 0.15204,0.094 0.26665,-0.12346 0.26665,-0.50643 0,-0.64807 -0.59908,-1.22351 -1.28571,-1.37356 z m 9.14362,0.0279 c -0.63062,-0.0484 -1.38494,0.26489 -1.87843,0.96945 -0.49922,0.71273 -0.55677,2.09992 -0.10594,2.55075 0.4714,0.4714 0.94802,0.38555 1.13533,-0.20464 0.20102,-0.63333 1.4287,-1.64398 1.75338,-1.44332 0.12841,0.0794 0.23358,-0.22253 0.23358,-0.67128 0,-0.74244 -0.50729,-1.15256 -1.13792,-1.20096 z m 6.66316,0.16795 c -0.0469,-0.0205 -0.15049,0.0512 -0.33538,0.20464 -0.23506,0.19509 -0.42736,0.46943 -0.42736,0.60926 0,0.45315 0.65849,0.0492 0.75809,-0.46509 0.0418,-0.21578 0.0516,-0.32837 0.005,-0.34881 z m -2.19211,1.09399 c -0.15684,-0.15684 -0.95188,0.25183 -0.95188,0.48937 0,0.13123 0.23234,0.0934 0.51676,-0.0842 0.28443,-0.17762 0.48042,-0.35984 0.43512,-0.40514 z m -21.72529,0.1943 c -0.52465,0 -1.71617,0.77331 -1.71617,1.11363 0,0.14221 -0.23813,0.56121 -0.52917,0.93121 -0.51487,0.65446 -0.52917,0.65692 -0.52917,0.0951 0,-0.31761 0.29537,-0.85152 0.65681,-1.18649 0.36143,-0.33497 0.57866,-0.68741 0.48266,-0.78341 -0.096,-0.096 -0.45088,0.0853 -0.7891,0.40307 -0.67368,0.63288 -0.83482,2.01205 -0.29766,2.5492 0.44389,0.44388 1.27021,0.39691 1.27021,-0.0723 0,-0.45336 1.47943,-1.29542 1.86138,-1.05936 0.41687,0.25764 0.61509,-0.64444 0.29559,-1.34566 -0.16153,-0.35452 -0.47886,-0.64492 -0.70538,-0.64492 z m -18.97507,0.27027 c -0.21995,0.0678 -0.46819,0.44033 -0.46819,0.80357 0,0.28245 0.10503,0.51366 0.23358,0.51366 0.24387,0 0.61633,-1.09003 0.4346,-1.27176 -0.0567,-0.0567 -0.12667,-0.0681 -0.19999,-0.0455 z m 31.69522,0.2589 c -0.50953,0 -1.02653,0.72362 -0.84852,1.18752 0.20606,0.53697 0.52336,0.50362 1.08107,-0.11265 0.48382,-0.53461 0.367,-1.07487 -0.23255,-1.07487 z m -9.31106,0.16071 c -0.4008,-0.0726 -0.68743,0.35912 -0.52141,1.02061 0.1902,0.75783 0.60777,0.783 1.06092,0.0646 0.20715,-0.3284 0.17817,-0.54332 -0.11317,-0.83458 -0.14651,-0.14646 -0.29273,-0.22642 -0.42634,-0.25063 z m 25.46563,0.19224 c -0.0717,0.016 -0.27924,0.18419 -0.67386,0.51624 -0.46964,0.39517 -0.96978,0.71882 -1.11156,0.71882 -0.50356,0 -2.09411,1.99928 -2.35799,2.96416 -0.14743,0.53908 -0.59221,1.37254 -0.98857,1.85157 l -0.72037,0.87075 0.7276,-0.46819 c 0.75623,-0.48656 0.96941,-0.30386 0.39688,0.33848 -0.28214,0.31689 -0.26115,0.31783 0.14676,0.008 0.26261,-0.1993 0.60909,-0.61011 0.77049,-0.91312 0.27301,-0.51255 0.25977,-0.52323 -0.19585,-0.154 -0.45073,0.36527 -0.47255,0.35473 -0.27389,-0.13229 0.11872,-0.29104 0.2752,-0.80586 0.3483,-1.14412 0.0731,-0.33826 0.38563,-0.7214 0.69402,-0.85111 0.93887,-0.39489 1.48673,-0.94687 1.48673,-1.49758 0,-0.29829 0.27744,-0.65009 0.64492,-0.81752 0.35483,-0.16167 0.78942,-0.56335 0.96583,-0.89297 0.14823,-0.27697 0.21225,-0.41342 0.14056,-0.39739 z m -5.52162,0.18862 c -1.34705,0.24633 -2.57969,1.48569 -2.57969,2.59364 0,0.41002 0.0747,0.82037 0.16588,0.91157 0.0912,0.0912 0.58176,-0.008 1.09037,-0.22066 0.50861,-0.21251 0.96758,-0.38654 1.01958,-0.38654 0.10229,0 1.16375,-2.01871 1.16375,-2.2133 0,-0.065 -0.25722,-0.0511 -0.57102,0.031 -0.39126,0.10222 -0.51054,0.0527 -0.38086,-0.15709 0.10411,-0.16845 0.3539,-0.30644 0.55501,-0.30644 0.2011,0 0.42903,-0.10212 0.50643,-0.22738 0.0776,-0.12557 -0.3575,-0.1367 -0.96945,-0.0248 z m 2.09548,0.03 c -0.0575,0.012 -0.15516,0.12326 -0.31833,0.339 -0.21365,0.28248 -0.38809,0.62464 -0.38809,0.76016 0,0.13549 0.17859,0.0979 0.39687,-0.0832 0.21829,-0.18116 0.39309,-0.52331 0.38809,-0.76016 -0.004,-0.18087 -0.021,-0.26784 -0.0785,-0.2558 z m 4.18837,0.11834 -0.97307,0.77979 c -0.5352,0.42878 -0.98168,0.86858 -0.99218,0.97772 -0.0325,0.33745 0.11091,0.23142 1.05316,-0.77928 z m -10.2309,0.79271 c -0.12129,0.0749 -0.22014,0.24806 -0.22014,0.38499 0,0.13694 0.0989,0.24908 0.22014,0.24908 0.12128,0 0.22066,-0.17311 0.22066,-0.38499 0,-0.21187 -0.0994,-0.32408 -0.22066,-0.24908 z m -9.06818,0.63407 c -0.0642,0 -0.19019,0.11906 -0.28009,0.26459 -0.0899,0.14552 -0.0378,0.26458 0.11628,0.26458 0.15411,0 0.2806,-0.11906 0.2806,-0.26458 0,-0.14553 -0.0526,-0.26459 -0.11679,-0.26459 z m -18.89445,0.031 c -0.40774,0.0694 -0.82757,0.33352 -1.20613,0.78341 -0.77733,0.92381 -0.87965,1.86386 -0.26924,2.47427 0.56331,0.56332 0.90693,0.52306 0.90693,-0.10645 0,-0.55988 1.22307,-1.33984 1.78593,-1.13895 0.48476,0.17299 0.41715,-1.12539 -0.0847,-1.62729 -0.32934,-0.32935 -0.72501,-0.45442 -1.13274,-0.38499 z m -8.31319,1.10174 c -0.17417,0.12348 -0.35979,0.51596 -0.40669,1.07074 -0.0452,0.53445 0.0313,0.97151 0.17001,0.97151 0.3232,0 0.57361,-0.65382 0.57361,-1.49861 0,-0.52154 -0.16276,-0.66712 -0.33693,-0.54364 z m 32.27348,0.28474 c -0.048,-0.0183 -0.11379,-0.007 -0.18655,0.0377 -0.14552,0.0899 -0.26458,0.28287 -0.26458,0.4284 0,0.14556 0.11906,0.19067 0.26458,0.10077 0.14552,-0.0899 0.26458,-0.28236 0.26458,-0.42788 0,-0.0728 -0.0301,-0.1207 -0.078,-0.13901 z m 2.35283,0.0269 c -0.52277,0.0897 -1.21646,0.68575 -1.21646,1.20768 0,0.71761 0.57652,0.65568 1.32601,-0.14211 0.46613,-0.49618 0.54817,-0.74116 0.32401,-0.96532 -0.10412,-0.10412 -0.2593,-0.13016 -0.43356,-0.10025 z m -10.46138,0.40773 c -0.60882,0 -0.91416,0.40432 -0.709,0.93896 0.16629,0.43334 0.21929,0.44765 0.80409,0.22324 0.61062,-0.2343 0.53465,-1.1622 -0.0951,-1.1622 z m 16.26361,5.1e-4 c -0.0762,0 -0.71888,0.41671 -1.42782,0.92604 -1.48667,1.06806 -1.7573,1.14332 -1.34565,0.37414 0.52692,-0.98455 0.0739,-0.8239 -0.90693,0.32195 -0.52661,0.61523 -0.95756,0.97838 -0.95756,0.80667 0,-0.55789 -1.26135,-0.32973 -2.10582,0.38085 -0.92119,0.77513 -1.59835,1.9248 -1.59835,2.71405 0,0.68303 -1.28779,1.69088 -1.942,1.5198 -0.96315,-0.25187 -2.55591,1.36851 -2.55591,2.60036 0,0.53039 0.41556,0.51047 1.72237,-0.0832 1.02185,-0.46422 2.77554,-2.16449 2.77554,-2.69079 0,-0.14046 0.11907,-0.25528 0.26459,-0.25528 0.4045,0 0.31546,0.56324 -0.17467,1.10484 -0.24161,0.26701 -0.3692,0.5557 -0.2837,0.6413 0.0856,0.0856 0.57346,-0.48066 1.08417,-1.25832 0.7044,-1.07262 0.8926,-1.59337 0.77928,-2.15697 -0.10152,-0.50493 -0.27109,-0.69638 -0.52917,-0.59738 -0.24988,0.0959 -0.18444,-0.12823 0.1912,-0.65578 0.44603,-0.62596 0.69546,-0.76162 1.14102,-0.61805 0.31364,0.10107 0.74138,0.18504 0.95085,0.18604 0.20948,10e-4 -0.0584,0.38235 -0.59532,0.84646 -1.62043,1.40075 -1.09682,1.29232 0.80771,-0.16743 0.98093,-0.75184 2.28387,-1.58167 2.89543,-1.84382 0.69408,-0.29752 1.26933,-0.78088 1.53065,-1.28622 0.23027,-0.44527 0.35629,-0.80926 0.28009,-0.80926 z m -11.1094,0.0992 c -1.56828,-0.0223 -3.53487,2.22344 -2.47117,3.28714 0.45395,0.45395 0.69241,0.40213 1.62884,-0.35502 0.45757,-0.36997 1.09421,-0.87598 1.4149,-1.12448 0.73761,-0.57157 0.76522,-1.27482 0.0651,-1.64951 -0.19778,-0.10584 -0.41365,-0.15494 -0.63769,-0.15813 z m 7.18871,0.2465 c -0.0586,-0.0147 -0.15736,0.048 -0.31988,0.18293 -0.21828,0.18116 -0.39687,0.37453 -0.39687,0.42943 0,0.055 0.17859,0.0997 0.39687,0.0997 0.21828,0 0.39688,-0.19281 0.39688,-0.42891 0,-0.17579 -0.0184,-0.26844 -0.077,-0.28319 z m -24.07812,0.0129 c -0.048,-0.0183 -0.11379,-0.007 -0.18655,0.0377 -0.14552,0.0899 -0.26458,0.28287 -0.26458,0.4284 0,0.14556 0.11906,0.19067 0.26458,0.10077 0.14552,-0.0899 0.26458,-0.28236 0.26458,-0.42788 0,-0.0728 -0.0301,-0.1207 -0.078,-0.13901 z m -9.05164,0.28215 c -0.15047,-0.0487 -0.3351,-0.007 -0.5395,0.16227 -0.471,0.39089 -0.50191,1.35534 -0.0579,1.79937 0.25986,0.25987 0.39597,0.23336 0.66146,-0.12971 0.53347,-0.72957 0.38731,-1.68585 -0.0641,-1.83193 z m 10.60917,0.28164 c -0.0922,0.0106 -0.20002,0.0621 -0.30954,0.15296 -0.20368,0.16908 -0.30166,0.41839 -0.21756,0.55449 0.0904,0.1463 0.30391,0.12185 0.52296,-0.0599 0.20368,-0.16907 0.30166,-0.41838 0.21756,-0.55448 -0.0452,-0.0731 -0.12127,-0.10358 -0.21342,-0.093 z m 6.05544,0.21807 c -1.04818,0.0332 -2.24327,1.06691 -2.24327,2.28152 0,0.38784 0.14266,0.84804 0.31729,1.02267 0.42697,0.42697 0.47208,0.41274 1.52446,-0.48679 0.50382,-0.43065 1.1289,-0.7829 1.38906,-0.7829 0.64784,0 0.6231,-1.10527 -0.0382,-1.70377 -0.26705,-0.24168 -0.5999,-0.3418 -0.9493,-0.33073 z m -0.27492,0.447 c 0.55975,0 0.74172,0.44769 0.25735,0.63356 -0.5897,0.22629 -0.6382,0.20843 -0.6382,-0.23668 0,-0.21828 0.17116,-0.39688 0.38085,-0.39688 z m 12.46694,0.26459 c -0.0642,0 -0.19018,0.11906 -0.28008,0.26458 -0.0899,0.14552 -0.0378,0.26458 0.11627,0.26458 0.15411,0 0.2806,-0.11906 0.2806,-0.26458 0,-0.14552 -0.0526,-0.26458 -0.11679,-0.26458 z m -0.25631,1.12603 c -0.18348,-0.18349 -0.68523,0.18977 -0.68523,0.50953 0,0.17546 0.15162,0.15494 0.40308,-0.0537 0.22178,-0.18407 0.34875,-0.38918 0.28215,-0.45578 z m -7.6414,0.27802 c -0.0586,-0.0147 -0.15735,0.0486 -0.31987,0.18345 -0.21828,0.18116 -0.39688,0.37401 -0.39688,0.42891 0,0.0549 0.1786,0.10025 0.39688,0.10025 0.21828,0 0.39687,-0.19333 0.39687,-0.42943 0,-0.17579 -0.0184,-0.26844 -0.077,-0.28318 z m 14.9438,0.18758 c -0.0389,-0.0881 -0.67207,0.13455 -1.25988,0.49299 -0.58732,0.35815 -0.97345,0.93639 -1.39268,2.08618 -0.31899,0.87487 -0.75667,1.73762 -0.97306,1.9172 -0.21639,0.17959 -0.39378,0.49045 -0.39378,0.69091 0,0.74921 0.4191,0.32114 1.00201,-1.02423 0.98267,-2.26804 1.24862,-2.71198 1.62522,-2.71198 0.19684,0 0.49026,-0.23812 0.65164,-0.52916 0.16139,-0.29104 0.41207,-0.61708 0.55759,-0.72399 0.14284,-0.10494 0.1959,-0.16856 0.18294,-0.19792 z m -26.62474,0.36484 c -1.04636,0.26262 -1.73632,1.09688 -1.73632,2.10013 0,0.48507 0.0797,0.96133 0.17673,1.05833 0.33722,0.33722 0.93212,0.17322 1.38079,-0.38086 0.28109,-0.34714 0.79611,-0.57498 1.3653,-0.60358 0.77125,-0.0388 0.91363,-0.14348 0.91363,-0.67076 0,-0.87097 -1.19923,-1.72937 -2.10013,-1.50326 z m -12.78216,0.21135 c -0.0466,0.0176 -0.0661,0.0997 -0.0661,0.24857 0,0.22313 0.0866,0.4923 0.19276,0.59841 0.10611,0.10611 0.23823,0.0563 0.29403,-0.1111 0.0558,-0.16735 -0.0309,-0.43704 -0.19275,-0.59893 -0.10802,-0.10804 -0.18131,-0.15457 -0.22789,-0.13695 z m 12.39717,0.47801 c 0.14544,0 0.11961,0.25317 -0.0605,0.58963 -0.17362,0.32442 -0.47546,0.74986 -0.67076,0.94516 -0.29708,0.29706 -0.35553,0.26854 -0.35553,-0.17415 0,-0.55184 0.6461,-1.36064 1.08675,-1.36064 z m 18.54564,0 c -0.55714,0 -1.11104,0.48793 -1.11104,0.97875 0,0.51645 0.61609,0.4141 1.13171,-0.1881 0.57441,-0.67089 0.57122,-0.79065 -0.0207,-0.79065 z m -6.10092,0.0444 c -1.11879,-0.15907 -2.43454,1.70319 -1.71307,2.42466 v 5.2e-4 c 0.36689,0.36688 1.67535,0.0569 1.67535,-0.39688 0,-0.1386 -0.11906,-0.17827 -0.26458,-0.0884 -0.14552,0.0899 -0.26459,0.0572 -0.26459,-0.0723 0,-0.12952 0.3021,-0.3967 0.67128,-0.59428 0.80961,-0.43328 0.75076,-1.15172 -0.10439,-1.27331 z m 2.00815,0.0739 c -0.074,-0.0971 -0.24153,-0.12002 -0.44493,0.006 -0.15753,0.0974 -0.21149,0.29835 -0.11989,0.44649 0.11169,0.18069 0.25956,0.17607 0.44958,-0.014 0.1698,-0.16978 0.18926,-0.3411 0.11524,-0.43822 z m 8.99842,0.25528 c -0.0948,-0.17533 -0.68975,0.49868 -1.95027,2.17351 -0.82548,1.09681 -1.92931,2.26693 -2.45308,2.59984 -1.40648,0.89395 -2.37624,2.20436 -1.9482,2.6324 0.087,0.087 0.22774,0.15765 0.31264,0.1571 0.32162,-0.002 2.0155,-1.13712 2.21795,-1.48622 0.11637,-0.20067 0.43706,-0.36483 0.71262,-0.36483 0.27556,0 0.68607,-0.26466 0.9126,-0.58808 0.66063,-0.94317 0.47167,-1.20781 -0.24132,-0.33797 -0.35785,0.43658 -0.65491,0.64502 -0.65991,0.46354 -0.005,-0.18148 0.38575,-0.77678 0.86868,-1.32291 0.99734,-1.12784 1.88188,-2.54838 2.16266,-3.47318 0.0733,-0.24157 0.0972,-0.39476 0.0656,-0.4532 z m -30.55008,0.15555 c -0.6823,0 -1.66088,0.85741 -1.66088,1.4552 0,0.21828 0.23812,0.63501 0.52917,0.92605 0.62754,0.62754 1.10561,0.69432 0.88677,0.12402 -0.13014,-0.33913 0.0219,-0.3769 0.93431,-0.23099 1.07787,0.17236 1.08934,0.1655 1.08934,-0.63821 0,-0.91149 -0.78793,-1.63607 -1.77871,-1.63607 z m 32.44608,0.41186 c -0.13195,0.0815 -0.24029,0.31998 -0.24029,0.52968 0,0.54762 0.18002,0.46949 0.34158,-0.14831 0.0762,-0.29126 0.0307,-0.46287 -0.10129,-0.38137 z m -10.12961,0.64647 c -0.48834,0 -1.04644,0.70112 -0.83302,1.04645 0.22347,0.36162 0.48963,0.34907 0.88005,-0.0413 0.42882,-0.42884 0.40185,-1.00511 -0.047,-1.00511 z m -26.77098,0.47129 c -0.29424,-0.13183 -0.42397,0.2772 -0.10438,0.87436 0.20542,0.38384 0.38753,0.47703 0.57206,0.29249 0.18453,-0.18453 0.14341,-0.45263 -0.12919,-0.84181 -0.12414,-0.17722 -0.2404,-0.2811 -0.33849,-0.32504 z m 36.46961,0.15761 c -0.0278,0.0278 -0.0464,0.12081 -0.0527,0.27492 -0.0115,0.27886 0.0511,0.43517 0.13901,0.34727 0.0879,-0.0879 0.0971,-0.31595 0.0207,-0.50695 -0.0422,-0.10553 -0.0792,-0.14306 -0.10697,-0.11524 z m -15.21199,0.7059 c -0.19238,0 -0.47627,0.0843 -0.7369,0.2527 -0.32265,0.20853 -0.28836,0.25745 0.18293,0.26045 0.31883,0.002 0.65321,-0.11493 0.74311,-0.26045 0.1041,-0.16843 0.003,-0.2527 -0.18914,-0.2527 z m 7.65225,0.0822 c 0.048,0.0183 0.0775,0.0662 0.0775,0.13901 0,0.14552 -0.11906,0.33849 -0.26458,0.42839 -0.14552,0.0899 -0.26458,0.0442 -0.26458,-0.10128 0,-0.14553 0.11906,-0.33798 0.26458,-0.42788 0.0728,-0.045 0.13911,-0.0566 0.18707,-0.0382 z m 7.39179,0.23874 c -0.0344,-0.0145 -0.12816,0.0514 -0.29662,0.19121 -0.22161,0.18392 -0.40307,0.37918 -0.40307,0.43408 0,0.29642 0.49691,0.0365 0.63923,-0.33435 0.0697,-0.18157 0.0948,-0.2764 0.0605,-0.29094 z m -10.73784,0.19637 c -0.15411,0 -0.2806,0.11907 -0.2806,0.26459 0,0.14552 0.0526,0.26458 0.11678,0.26458 0.0642,0 0.19019,-0.11906 0.28009,-0.26458 0.0899,-0.14552 0.0378,-0.26459 -0.11627,-0.26459 z m -7.69979,0.0145 c -0.43977,-0.002 -0.89066,0.13102 -1.16065,0.40101 -0.43672,0.43672 -0.53652,0.96261 -0.23926,1.25987 0.35041,0.35041 1.63024,0.16557 2.23293,-0.32246 0.52814,-0.42766 0.56544,-0.5598 0.26149,-0.92604 -0.22616,-0.27249 -0.65474,-0.41015 -1.09451,-0.41238 z m -8.59689,0.5147 c -0.43304,0 6.1e-4,0.8416 0.59376,1.15238 0.68647,0.35969 1.3994,0.32236 1.3994,-0.0734 0,-0.16706 -1.68453,-1.079 -1.99316,-1.079 z m 4.65501,0 c -0.1541,0 -0.2806,0.11905 -0.2806,0.26458 0,0.14552 0.0526,0.26459 0.11679,0.26459 0.0642,0 0.19018,-0.11907 0.28008,-0.26459 0.0899,-0.14553 0.0378,-0.26458 -0.11627,-0.26458 z m -14.41979,0.53278 c -0.13695,-0.002 -0.0182,0.16518 0.26407,0.37156 0.28225,0.2064 0.5694,0.31891 0.6382,0.25011 0.14562,-0.14562 -0.53654,-0.61567 -0.90227,-0.62167 z m 23.73189,0.047 c -0.93817,-0.0679 -1.23222,0.0366 -1.78594,0.63407 -0.38552,0.41597 -0.66301,1.03102 -0.66301,1.47019 0,0.69723 0.0761,0.75431 0.99219,0.74931 0.5977,-0.004 1.25517,-0.21973 1.65364,-0.54415 l 0.66146,-0.53847 -0.92604,0.17828 c -1.08924,0.20991 -0.86677,-0.15149 0.34985,-0.56844 0.55089,-0.18879 0.84077,-0.46255 0.84077,-0.79375 0,-0.40552 -0.22207,-0.52184 -1.12292,-0.58704 z m 11.50214,0.0817 -0.11628,0.60616 c -0.0639,0.33349 -0.52375,1.01416 -1.02216,1.51257 -0.49841,0.4984 -0.90368,0.99964 -0.89968,1.11363 0.004,0.11399 0.47988,-0.29409 1.05833,-0.90692 0.65274,-0.69154 1.03836,-1.34396 1.01596,-1.71979 z m -8.87078,0.39687 c -0.55715,0 -1.11156,0.48794 -1.11156,0.97875 0,0.41478 0.38502,0.44003 1.0759,0.0703 0.64468,-0.34504 0.66868,-1.04903 0.0357,-1.04903 z m -19.2071,0.32246 c -0.28221,0.0379 -0.53494,0.15274 -0.70796,0.36122 -0.52557,0.63328 0.0238,1.27544 1.2361,1.44488 1.24443,0.17395 1.42782,0.1038 1.42782,-0.54209 0,-0.80144 -1.10931,-1.37769 -1.95596,-1.26401 z m 19.30218,0.0786 c 0.0719,0.0189 0.11628,0.066 0.11628,0.13643 0,0.14095 -0.1786,0.25631 -0.39688,0.25631 -0.21828,0 -0.39687,-0.0472 -0.39687,-0.10438 0,-0.0572 0.17859,-0.17252 0.39687,-0.25632 0.10914,-0.0419 0.20867,-0.0509 0.2806,-0.032 z m -22.77018,0.39274 c -0.23548,0 -0.35449,0.11907 -0.26459,0.26459 0.0899,0.14552 0.20899,0.26458 0.26459,0.26458 0.0556,0 0.17468,-0.11906 0.26458,-0.26458 0.0899,-0.14552 -0.0291,-0.26459 -0.26458,-0.26459 z m 16.43569,0 c -0.21828,0 -0.47079,0.11907 -0.56069,0.26459 -0.0899,0.14552 0.0153,0.26458 0.23358,0.26458 0.21828,0 0.47027,-0.11906 0.56017,-0.26458 0.0899,-0.14552 -0.0148,-0.26459 -0.23306,-0.26459 z m 7.63157,0.52659 c -0.57626,0.0104 -1.26169,0.0627 -1.77818,0.15244 -1.04413,0.18153 -1.39581,0.46611 -1.12242,0.90847 0.17706,0.28648 2.28702,0.35337 3.22306,0.10232 0.5158,-0.13833 1.03487,-0.82806 0.79995,-1.06298 -0.0791,-0.0791 -0.54614,-0.11061 -1.12241,-0.10025 z m -12.84779,0.0512 c -0.74815,-0.15875 -1.64422,0.009 -2.23552,0.60048 -0.76522,0.76522 -0.8277,1.33757 -0.18656,1.711 0.25466,0.14833 0.86472,0.27351 1.35548,0.27751 0.76354,0.007 0.8446,-0.049 0.56275,-0.38861 -0.28372,-0.34187 -0.17783,-0.39688 0.76171,-0.39688 0.84283,0 1.09038,-0.10067 1.09038,-0.44235 0,-0.71677 -0.60009,-1.2024 -1.34824,-1.36115 z m 20.52174,0.0909 c -0.0417,0.024 -0.12573,0.11182 -0.24184,0.25734 -0.23222,0.29104 -0.62109,0.678 -0.86403,0.8599 -0.24297,0.1819 -0.31821,0.33073 -0.16743,0.33073 0.29775,0 0.95485,-0.68869 1.26193,-1.32292 0.0529,-0.10914 0.0531,-0.14903 0.0114,-0.12505 z m -16.34939,0.72967 c -0.59533,0.0724 -1.27493,0.44161 -1.10329,0.71933 0.23442,0.3793 1.00646,0.32393 1.60249,-0.11472 0.48926,-0.36008 0.49075,-0.38663 0.0336,-0.56379 -0.14498,-0.0562 -0.33434,-0.065 -0.53279,-0.0408 z m 12.71396,0.0848 c -0.0887,-0.0282 -0.36802,0.15511 -0.91313,0.52503 -0.54203,0.36783 -1.17887,0.61794 -1.41541,0.55604 -0.23655,-0.0619 -0.71585,0.1072 -1.06506,0.37569 -0.84694,0.65113 -1.23373,0.63218 -0.63355,-0.031 0.64573,-0.71352 0.47593,-0.80132 -0.95756,-0.49558 -0.82224,0.17536 -1.49983,0.55373 -2.0991,1.17202 -0.55737,0.57506 -1.13502,0.91203 -1.56063,0.91003 l -0.67593,-0.003 0.8599,-0.67748 c 0.47294,-0.37273 0.8599,-0.80113 0.8599,-0.95188 0,-0.38364 -1.2617,-0.0314 -2.14768,0.59944 -0.44914,0.31979 -0.78881,0.41386 -0.89193,0.24702 -0.43567,-0.70493 -2.89671,-0.0972 -3.17655,0.78445 -0.10802,0.34034 -0.48282,0.61655 -0.96842,0.71365 -0.71113,0.14223 -0.75055,0.19977 -0.38705,0.56327 0.35375,0.35375 0.59857,0.36043 1.93786,0.0522 0.84315,-0.19405 1.85688,-0.53534 2.25258,-0.75861 0.39571,-0.22331 0.80889,-0.31663 0.91829,-0.20722 0.1824,0.18239 -0.22538,0.56639 -0.82476,0.7767 -0.1349,0.0473 -0.15775,0.22821 -0.0506,0.40152 0.26916,0.43551 0.83416,0.39397 1.83038,-0.13384 0.50267,-0.26632 1.47437,-0.45402 2.39107,-0.46302 1.31225,-0.0122 1.63002,-0.1143 2.11718,-0.68058 0.31529,-0.36651 0.82368,-0.68548 1.12965,-0.70848 1.02582,-0.0773 2.93467,-1.15156 3.24114,-1.82418 0.21615,-0.47439 0.31815,-0.7139 0.22945,-0.74207 z m -18.87172,0.008 c 0.36037,-0.0495 0.94778,0.13974 1.1281,0.4315 0.10547,0.17061 -0.0974,0.22004 -0.54829,0.13384 -0.5339,-0.10206 -0.68059,-0.0444 -0.57671,0.22634 0.0766,0.19972 0.0795,0.36329 0.007,0.36329 -0.23165,0 -0.43285,-0.75892 -0.27079,-1.02113 0.0461,-0.0745 0.14085,-0.11736 0.26097,-0.13384 z m -8.68474,0.38189 c -0.38787,0.0147 -0.43275,0.0655 -0.15245,0.17208 0.21828,0.083 0.6808,0.37096 1.02785,0.64027 0.88845,0.68944 1.02789,0.60849 0.29507,-0.17157 -0.34178,-0.3638 -0.86842,-0.65228 -1.17047,-0.64078 z m 28.90676,0.66352 c -0.048,-0.0349 -0.50404,0.41129 -1.01337,0.99167 -0.64858,0.73909 -0.75864,0.96631 -0.36794,0.75861 0.52207,-0.27754 1.57377,-1.61021 1.38131,-1.75028 z m -16.0786,0.10956 c -0.15411,0 -0.28061,0.11906 -0.28061,0.26458 0,0.14552 0.0526,0.26458 0.11679,0.26458 0.0642,0 0.19019,-0.11906 0.28009,-0.26458 0.0899,-0.14552 0.0378,-0.26458 -0.11627,-0.26458 z m -6.9448,0.0837 c -0.21107,0.0845 -0.14803,0.14698 0.1602,0.15968 0.27896,0.0115 0.43516,-0.0511 0.34726,-0.13901 -0.0879,-0.0879 -0.31647,-0.0971 -0.50746,-0.0207 z m -5.1077,0.50075 c -0.16021,-0.10327 -0.0642,0.0208 0.21343,0.27543 0.27764,0.25467 0.6999,0.45497 0.93844,0.44597 0.2742,-0.0106 0.19575,-0.1115 -0.21342,-0.27492 -0.35597,-0.14216 -0.77823,-0.34321 -0.93845,-0.44648 z m 28.57293,0.0992 -1.10846,0.96635 c -0.65518,0.57094 -1.521,1.03919 -2.11666,1.14514 -0.55438,0.0986 -1.32995,0.47949 -1.72341,0.84646 -0.39347,0.36697 -1.28644,0.82106 -1.98438,1.00873 -0.69797,0.18767 -0.99717,0.34915 -0.66507,0.35915 0.7834,0.0232 2.20963,-0.57764 2.65927,-1.11983 0.19409,-0.23404 0.97001,-0.60455 1.72392,-0.82372 0.92998,-0.27036 1.66724,-0.71722 2.29289,-1.3901 z m -25.00932,0.0238 c -0.15811,-0.0579 -0.0299,0.0992 0.40359,0.47852 1.08069,0.9456 2.19348,1.51311 2.72955,1.39165 0.69911,-0.15838 2.82204,1.01291 3.1533,1.73994 0.37889,0.83158 1.89146,1.35181 3.35018,1.15187 0.60353,-0.0827 1.27326,-0.0393 1.48828,0.0966 0.60338,0.38156 2.68584,0.29712 3.53002,-0.14315 0.41682,-0.21739 0.9526,-0.40718 1.19062,-0.42168 0.25043,-0.0153 0.15434,-0.11565 -0.22841,-0.23823 -0.54363,-0.1741 -0.4258,-0.22372 0.66146,-0.27802 l 1.32292,-0.0661 -1.19063,-0.16123 c -0.85901,-0.11642 -1.51241,-0.0247 -2.34507,0.32969 -0.81204,0.3456 -1.43941,0.43803 -2.11667,0.31161 -0.35367,-0.066 -0.99834,-0.0784 -1.58492,-0.10128 0.2199,0.003 0.54698,0.0959 0.75448,0.22996 0.48365,0.31256 0.0659,0.31256 -0.66146,0 -0.32786,-0.14088 -0.36304,-0.21603 -0.15193,-0.23358 -0.26926,-0.009 -0.49043,-0.0513 -0.72864,-0.0465 -1.18036,0.0236 -1.66548,-0.12703 -2.97656,-0.92346 -1.64958,-1.00207 -2.12021,-1.47773 -0.77256,-0.78083 0.43656,0.22576 0.79375,0.291 0.79375,0.1447 0,-0.1463 -0.49342,-0.51784 -1.09606,-0.82528 -0.8331,-0.42501 -1.35983,-0.51907 -2.19883,-0.39325 -0.89343,0.13398 -1.27675,0.0482 -2.01331,-0.45011 -0.7108,-0.4809 -1.155,-0.75391 -1.3131,-0.81183 z m 10.30531,4.08657 c 0.0218,7.7e-4 0.0371,0.003 0.0589,0.004 -0.0114,-1.7e-4 -0.0285,-0.0123 -0.0393,-0.0119 -0.0158,6e-4 -0.006,0.007 -0.0196,0.008 z m 7.69256,-3.78995 c 0,0.15818 -0.12672,0.3664 -0.28216,0.4625 -0.15549,0.0961 -0.21917,0.34111 -0.14107,0.54467 0.092,0.23985 -0.0412,0.37001 -0.37879,0.37001 -0.67026,0 -0.6569,-0.0904 0.14056,-0.95085 0.36381,-0.39252 0.66146,-0.58451 0.66146,-0.42633 z m -9.92188,0.31884 c -0.21828,0 -0.39687,0.11907 -0.39687,0.26459 0,0.14552 0.17859,0.26458 0.39687,0.26458 0.21828,0 0.39688,-0.11906 0.39688,-0.26458 0,-0.14552 -0.1786,-0.26459 -0.39688,-0.26459 z m 3.58118,0 c 0.72107,0 0.77415,0.054 0.51986,0.52917 -0.41968,0.78418 -1.32291,0.66391 -1.32291,-0.17622 0,-0.21649 0.31022,-0.35295 0.80305,-0.35295 z m 9.25111,1.09193 c -0.37615,-0.007 -1.06089,0.34105 -1.5875,0.80615 -0.50937,0.44984 -0.74744,0.72438 -0.52916,0.6103 0.21828,-0.11408 0.59244,-0.37475 0.83147,-0.5793 0.23902,-0.20455 0.77481,-0.47381 1.19062,-0.59841 0.72854,-0.21836 0.73195,-0.22714 0.0946,-0.23874 z m -14.27923,1.98747 c 0.0688,-0.0688 0.42241,0.0396 0.786,0.24081 0.38325,0.2121 0.49416,0.36804 0.26407,0.37104 -0.47259,0.006 -1.22807,-0.43385 -1.05007,-0.61185 z" />
  </g>
</svg>
